<?xml version="1.0" encoding="UTF-8" standalone="no"?>
<!-- Created with Inkscape (http://www.inkscape.org/) -->

<svg
   xmlns:dc="http://purl.org/dc/elements/1.1/"
   xmlns:cc="http://creativecommons.org/ns#"
   xmlns:rdf="http://www.w3.org/1999/02/22-rdf-syntax-ns#"
   xmlns:svg="http://www.w3.org/2000/svg"
   xmlns="http://www.w3.org/2000/svg"
   xmlns:sodipodi="http://sodipodi.sourceforge.net/DTD/sodipodi-0.dtd"
   xmlns:inkscape="http://www.inkscape.org/namespaces/inkscape"
   width="512"
   height="512"
   id="svg4319"
   version="1.1"
   inkscape:version="0.48.4 r9939">
  <defs
     id="defs4321" />
  <sodipodi:namedview
     id="base"
     pagecolor="#ffffff"
     bordercolor="#666666"
     borderopacity="1.0"
     inkscape:pageopacity="0.0"
     inkscape:pageshadow="2"
     inkscape:zoom="0.35"
     inkscape:cx="375"
     inkscape:cy="520"
     inkscape:document-units="px"
     inkscape:current-layer="layer1"
     showgrid="false"
     inkscape:window-width="1920"
     inkscape:window-height="1031"
     inkscape:window-x="0"
     inkscape:window-y="25"
     inkscape:window-maximized="1" />
  <metadata
     id="metadata4324">
    <rdf:RDF>
      <cc:Work
         rdf:about="">
        <dc:format>image/svg+xml</dc:format>
        <dc:type
           rdf:resource="http://purl.org/dc/dcmitype/StillImage" />
        <dc:title></dc:title>
      </cc:Work>
    </rdf:RDF>
  </metadata>
  <g
     inkscape:label="Layer 1"
     inkscape:groupmode="layer"
     id="layer1"
     transform="translate(0,-540.36218)">
    <path
       style="font-size:medium;font-style:normal;font-variant:normal;font-weight:normal;font-stretch:normal;text-indent:0;text-align:start;text-decoration:none;line-height:normal;letter-spacing:normal;word-spacing:normal;text-transform:none;direction:ltr;block-progression:tb;writing-mode:lr-tb;text-anchor:start;baseline-shift:baseline;color:#000000;fill:#000000;fill-opacity:1;stroke:none;stroke-width:19.98975372;marker:none;visibility:visible;display:inline;overflow:visible;enable-background:accumulate;font-family:Sans;-inkscape-font-specification:Sans"
       d="m 256,540.36216 c -141.3849,0 -256,114.6151 -256,256 0,141.3849 114.6151,256.00004 256,256.00004 141.3849,0 256,-114.61514 256,-256.00004 0,-141.3849 -114.6151,-256 -256,-256 z m 0,74 c 100.51582,0 182,81.48418 182,182 0,31.98446 -8.26108,62.03799 -22.75,88.15625 -0.34275,-2.25128 -0.76343,-4.48419 -1.25,-6.6875 -10.32201,-46.74094 -52.05504,-81.65625 -101.78125,-81.65625 -13.51799,0 -26.44655,2.60732 -38.3125,7.3125 l -0.78125,-0.78125 46.25,-51.78125 c 3.79394,-3.13574 6.5865,-7.46832 7.875,-12.21875 1.2885,-4.75043 1.06445,-9.87695 -0.625,-14.5 -1.68945,-4.62305 -4.82715,-8.69969 -8.875,-11.5 -4.04785,-2.80031 -8.98442,-4.33061 -13.90625,-4.28125 l -140.53125,0 c -6.80251,-0.0664 -13.58718,2.93179 -18.125,8 -4.53782,5.06821 -6.75239,12.12115 -5.9375,18.875 0.0145,0.33462 0.0459,0.66852 0.0937,1 l 0,103.84375 0,95.90625 c -4.54636,-3.80066 -8.90886,-7.81106 -13.0625,-12.03125 1.76024,-7.58935 2.6875,-15.51003 2.6875,-23.625 0,-39.50137 -22.03277,-73.92951 -54.53125,-91.59375 C 74.16002,804.6889 74,800.54327 74,796.36216 c 0,-100.51582 81.48418,-182 182,-182 z m 94.8125,60.5625 c -13.15855,0 -23.84375,10.65395 -23.84375,23.8125 0,13.15855 10.6852,23.84375 23.84375,23.84375 13.15855,0 23.8125,-10.6852 23.8125,-23.84375 0,-13.15855 -10.65395,-23.8125 -23.8125,-23.8125 z m -170.53125,81.5 107.375,0 -35.71875,40 c -1.67506,1.8743 -2.59436,4.39332 -2.53125,6.90625 0.0631,2.51294 1.10797,4.99339 2.875,6.78125 l 3,3.03125 c -28.46504,18.62706 -47.3125,50.77484 -47.3125,87.25 0,29.48398 12.30131,56.22949 32.03125,75.1875 0.79787,0.76665 1.61532,1.54006 2.4375,2.28125 -30.39609,-2.23965 -58.70649,-11.9684 -83.125,-27.3125 l 0,-51.59375 66.3125,-75 c 1.56805,-1.77175 2.46596,-4.10301 2.5,-6.46875 0.034,-2.36573 -0.79608,-4.74637 -2.3125,-6.5625 l -45.53125,-54.5 z m -20.96875,6.09375 45.65625,54.625 -45.65625,51.65625 0,-28.65625 0,-77.625 z m 152.90625,51.5625 c 41.34723,0 75.74346,28.96349 84.28125,67.625 1.32879,6.01712 2.03125,12.25237 2.03125,18.6875 0,3.32811 -0.19855,6.61502 -0.5625,9.84375 -29.94882,37.29251 -74.29072,62.51263 -124.59375,67.28125 -7.7166,-3.89604 -14.78911,-8.90589 -20.96875,-14.84375 -16.35801,-15.718 -26.53125,-37.76539 -26.53125,-62.28125 0,-31.6697 16.94456,-59.2649 42.28125,-74.28125 l 40.125,40.46875 c 1.81163,1.97919 4.44266,3.18481 7.125,3.25 2.68234,0.0652 5.37561,-1.0174 7.28125,-2.90625 1.90564,-1.88884 3.0102,-4.56719 2.96875,-7.25 -0.0414,-2.68281 -1.22442,-5.32718 -3.1875,-7.15625 l -34.625,-34.9375 c 7.73025,-2.26031 15.90109,-3.5 24.375,-3.5 z M 77.5,832.11216 c 20.389,15.76791 33.53125,40.42807 33.53125,68.28125 0,1.92977 -0.0632,3.85231 -0.1875,5.75 C 94.5876,884.68053 82.95596,859.5088 77.5,832.11216 z"
       id="path60"
       inkscape:connector-curvature="0" />
  </g>
</svg>
