<?xml version="1.0" encoding="UTF-8" standalone="no"?>
<!-- Created with Inkscape (http://www.inkscape.org/) -->

<svg
   xmlns:dc="http://purl.org/dc/elements/1.1/"
   xmlns:cc="http://creativecommons.org/ns#"
   xmlns:rdf="http://www.w3.org/1999/02/22-rdf-syntax-ns#"
   xmlns:svg="http://www.w3.org/2000/svg"
   xmlns="http://www.w3.org/2000/svg"
   xmlns:sodipodi="http://sodipodi.sourceforge.net/DTD/sodipodi-0.dtd"
   xmlns:inkscape="http://www.inkscape.org/namespaces/inkscape"
   width="512"
   height="512"
   id="svg4319"
   version="1.1"
   inkscape:version="0.91 r13725"
   sodipodi:docname="fatigued.svg">
  <defs
     id="defs4321" />
  <sodipodi:namedview
     id="base"
     pagecolor="#ffffff"
     bordercolor="#666666"
     borderopacity="1.0"
     inkscape:pageopacity="0.0"
     inkscape:pageshadow="2"
     inkscape:zoom="0.7"
     inkscape:cx="190.37555"
     inkscape:cy="310.34391"
     inkscape:document-units="px"
     inkscape:current-layer="layer1"
     showgrid="false"
     inkscape:window-width="1366"
     inkscape:window-height="725"
     inkscape:window-x="0"
     inkscape:window-y="25"
     inkscape:window-maximized="1" />
  <metadata
     id="metadata4324">
    <rdf:RDF>
      <cc:Work
         rdf:about="">
        <dc:format>image/svg+xml</dc:format>
        <dc:type
           rdf:resource="http://purl.org/dc/dcmitype/StillImage" />
        <dc:title />
      </cc:Work>
    </rdf:RDF>
  </metadata>
  <g
     inkscape:label="Layer 1"
     inkscape:groupmode="layer"
     id="layer1"
     transform="translate(0,-540.36218)">
    <g
       style="font-style:normal;font-variant:normal;font-weight:500;font-stretch:normal;font-size:470px;line-height:125%;font-family:markallen;-inkscape-font-specification:'markallen, Medium';text-align:start;letter-spacing:0px;word-spacing:0px;writing-mode:lr-tb;text-anchor:start;fill:#000000;fill-opacity:1;stroke:none;stroke-width:1px;stroke-linecap:butt;stroke-linejoin:miter;stroke-opacity:1"
       id="text3336">
      <path
         d="M 75.000004,615.36219 Q 150.00001,540.3622 256,540.3622 q 106.00001,0 181.00001,74.99999 Q 512,690.3622 512,796.3622 q 0,106.00001 -74.99999,181 -75,75 -181.00001,75 -105.99999,0 -180.999996,-75 Q 2.35e-6,902.36221 2.35e-6,796.3622 q 0,-106 75.00000165,-181.00001 z m 132.999996,96 q -17.99999,-12.99999 -40,-12.99999 -22,0 -40.99999,12.99999 -19,12.00001 -27.00001,32 -4.999996,12.00001 2,21.00001 8.00001,9 19,8 12.00001,-1 17,-13.00001 8,-18.99999 30,-18.99999 21.00001,0 29.00001,18.99999 4.99999,12.00001 16,13.00001 11.99999,1 18.99999,-8 8,-9 3.00001,-21.00001 -8,-19.99999 -27.00001,-32 z m 186.00001,0 q -19,-12.99999 -41.00001,-12.99999 -21.99999,0 -41,12.99999 -17.99999,12.00001 -25.99999,32 Q 281,755.3622 288,764.3622 q 8,9 19.00001,8 12,-1 17,-13.00001 8,-18.99999 28.99999,-18.99999 22.00001,0 30.00001,18.99999 5,12.00001 16,13.00001 12,1 19,-8 8,-9 3,-21.00001 -8,-19.99999 -27,-32 z m -179,170.00001 q -4,-12 -15.00001,-14 -10.99999,-2 -18.99999,7 -7,8 -5.00001,21 10,27 33,45 23,17 50.00001,17 27,0 49,-17 23,-18 33,-45 5,-12 -3,-20 -8,-9 -20,-7 -12,1 -16,13 -12,34 -43,34 -32,0 -44,-34 z"
         id="path3354"
         inkscape:connector-curvature="0" />
    </g>
  </g>
</svg>
