<?xml version="1.0" encoding="UTF-8" standalone="no"?>
<!-- Created with Inkscape (http://www.inkscape.org/) -->

<svg
   xmlns:dc="http://purl.org/dc/elements/1.1/"
   xmlns:cc="http://creativecommons.org/ns#"
   xmlns:rdf="http://www.w3.org/1999/02/22-rdf-syntax-ns#"
   xmlns:svg="http://www.w3.org/2000/svg"
   xmlns="http://www.w3.org/2000/svg"
   xmlns:sodipodi="http://sodipodi.sourceforge.net/DTD/sodipodi-0.dtd"
   xmlns:inkscape="http://www.inkscape.org/namespaces/inkscape"
   width="512"
   height="512"
   id="svg4319"
   version="1.1"
   inkscape:version="0.48.4 r9939"
   sodipodi:docname="fingerprint.svg">
  <defs
     id="defs4321" />
  <sodipodi:namedview
     id="base"
     pagecolor="#ffffff"
     bordercolor="#666666"
     borderopacity="1.0"
     inkscape:pageopacity="0.0"
     inkscape:pageshadow="2"
     inkscape:zoom="0.98994949"
     inkscape:cx="-133.68874"
     inkscape:cy="190.03757"
     inkscape:document-units="px"
     inkscape:current-layer="layer1"
     showgrid="false"
     inkscape:window-width="1920"
     inkscape:window-height="1031"
     inkscape:window-x="0"
     inkscape:window-y="25"
     inkscape:window-maximized="1" />
  <metadata
     id="metadata4324">
    <rdf:RDF>
      <cc:Work
         rdf:about="">
        <dc:format>image/svg+xml</dc:format>
        <dc:type
           rdf:resource="http://purl.org/dc/dcmitype/StillImage" />
        <dc:title />
      </cc:Work>
    </rdf:RDF>
  </metadata>
  <g
     inkscape:label="Layer 1"
     inkscape:groupmode="layer"
     id="layer1">
    <path
       d="m 270.11745,0.60583647 c -3.55189,0.088989 -6.74063,3.28563593 -6.82084,6.83772573 -0.0802,3.5520908 2.96099,6.8894108 6.50524,7.1386398 35.3029,2.492219 92.86204,14.725212 148.23968,62.758399 2.77376,2.40786 7.4883,2.074937 9.89616,-0.698825 2.40786,-2.773764 2.07495,-7.488302 -0.69881,-9.896161 C 382.22536,32.280965 325.45941,4.952256 270.11745,0.60583647 z M 234.77076,1.1468531 c 0,0 -93.91206,2.0038465 -166.859802,81.0178489 -2.715505,2.644827 -2.646514,7.592267 0.141676,10.16034 2.78819,2.568088 7.724607,2.230896 10.137704,-0.692477 68.984322,-74.72098 156.896002,-76.509343 156.896002,-76.509343 3.774,0.09456 7.25661,-3.379456 7.1714,-7.1536805 -0.99854,-3.9091897 -4.42707,-6.9303829 -7.48698,-6.8226884 z m 24.97713,28.3585029 c -2.2915,-0.01947 -4.57129,-0.0058 -6.80785,0.04501 -53.67742,1.233182 -91.02673,22.09168 -91.02673,22.09168 -3.19915,1.793852 -4.47752,6.336983 -2.6833,9.535901 1.79423,3.198918 6.33752,4.476766 9.53622,2.68215 0,0 61.47707,-34.344659 138.95215,-13.976369 3.58807,1.085259 7.83859,-1.291164 8.79318,-4.916176 0.95458,-3.625026 -1.57424,-7.786673 -5.23146,-8.609341 -18.15644,-4.773347 -35.49176,-6.716146 -51.53221,-6.85293 z m 80.38666,17.538088 c -3.118,0.203092 -5.92957,2.743624 -6.4466,5.825148 -0.51703,3.081524 1.31137,6.400578 4.19234,7.6102 17.45978,7.727333 35.46364,18.581548 53.51597,33.498196 24.37948,20.144782 41.81087,44.601772 54.23733,70.738472 1.43959,3.50545 6.05279,5.28857 9.47579,3.66265 3.42301,-1.62593 4.95559,-6.32831 3.14802,-9.65897 C 445.10364,131.05267 426.42692,104.8085 400.27802,83.201658 381.27386,67.498514 362.19995,55.968915 343.56101,47.719719 c -0.84437,-0.40324 -1.7703,-0.634739 -2.70511,-0.676275 -0.24024,-0.01299 -0.48111,-0.01299 -0.72135,0 z m -78.4931,16.230621 c -2.23818,-0.01472 -4.44408,-0.0087 -6.62749,0.04501 -44.10873,1.086125 -76.21328,15.351208 -77.36597,15.869938 0,0 -0.34711,0.175089 -0.36068,0.18034 -1.07134,0.414725 -43.75597,17.090268 -75.96832,59.331947 -2.272247,2.91074 -1.660488,7.63808 1.27783,9.87454 2.93833,2.23646 7.65784,1.56692 9.85818,-1.39856 30.03934,-39.39209 70.24251,-54.913599 70.24251,-54.913599 0.12191,-0.05656 0.24223,-0.116716 0.36069,-0.18034 0,0 96.29004,-43.838185 180.56567,18.575049 2.95078,2.18397 7.62275,1.48607 9.80649,-1.46491 2.18371,-2.95097 1.4854,-7.6229 -1.46576,-9.80636 C 334.68524,71.778605 295.21415,63.494729 261.64145,63.273993 z m -126.50868,4.01257 c -1.32459,0.02597 -2.63938,0.437809 -3.74205,1.172212 -24.27079,16.049846 -57.259192,44.196563 -77.411044,87.915873 -1.535028,3.3286 0.09724,7.75385 3.426045,9.28842 3.328821,1.53455 7.753851,-0.0984 9.287941,-3.42736 18.672314,-40.50946 49.560008,-66.991837 72.406598,-82.099905 2.51669,-1.64971 3.73781,-5.041895 2.85,-7.917139 -0.88779,-2.875255 -3.80881,-4.988468 -6.81749,-4.932101 z m 310.50082,20.87438 c -2.62875,0.105031 -5.12603,1.827698 -6.15785,4.247763 -1.0318,2.420065 -0.54576,5.414694 1.19849,7.384185 63.9104,73.195247 57.16786,160.547907 57.16786,160.547907 -0.50835,3.76237 2.60783,7.61989 6.39298,7.9139 3.78515,0.29398 7.45961,-3.03611 7.5383,-6.83186 0,0 7.27373,-93.09945 -60.59432,-170.827301 -1.36024,-1.583849 -3.45888,-2.5052 -5.54546,-2.434594 z m -193.68542,4.779016 c -5.82227,-0.05555 -19.68624,0.471482 -37.33043,5.680719 -23.52559,6.94565 -54.42527,22.22415 -84.12872,54.86853 -17.58551,19.32664 -27.82685,39.06222 -33.362941,57.25802 -1.166642,3.53395 1.05412,7.81162 4.615711,8.89089 3.5616,1.07927 7.7833,-1.24613 8.77455,-4.83323 4.96344,-16.31369 14.12402,-34.06894 30.34224,-51.8929 27.92117,-30.68564 56.32217,-44.53654 77.72664,-50.85597 21.40449,-6.31943 35.16635,-5.09461 35.16635,-5.09461 3.74097,0.49171 7.56885,-2.59163 7.88522,-6.35148 0.31636,-3.759845 -2.94248,-7.439479 -6.71301,-7.579798 0,0 -1.03487,-0.0717 -2.97561,-0.09017 z m 33.94905,3.0207 c -0.22598,0.0043 -0.45176,0.01918 -0.67628,0.04501 -3.38726,0.226508 -6.35756,3.251103 -6.52271,6.641899 -0.16513,3.39081 2.49722,6.68971 5.84643,7.2443 32.37249,6.49594 82.3422,26.42915 110.00755,90.98166 1.30731,3.55202 5.84157,5.50569 9.32111,4.01621 3.47954,-1.48949 5.1958,-6.11884 3.52814,-9.51658 -29.67993,-69.25319 -84.90379,-92.16835 -120.10661,-99.232234 -0.45823,-0.106905 -0.92728,-0.167413 -1.39763,-0.18034 z M 52.942718,103.76037 c -2.021253,0.18947 -3.936596,1.30818 -5.094611,2.97561 -74.421879,103.13584 -39.810109,212.17031 -39.810109,212.17031 1.1091449,3.49418 5.297814,5.66406 8.791861,4.55446 3.494045,-1.1096 5.663365,-5.29856 4.553317,-8.79245 0,0 -32.714172,-102.03235 37.781281,-199.72683 1.552599,-2.04671 1.841649,-4.9773 0.718836,-7.28788 -2.034772,-2.70872 -4.11294,-3.85773 -6.940575,-3.89322 z m 340.572542,17.67342 c -2.65753,0.178 -5.13303,2.01263 -6.07649,4.50341 -0.94348,2.49078 -0.3047,5.50507 1.56798,7.39904 41.30264,43.85221 52.88904,111.26832 52.88477,171.00765 0,3.6708 3.33992,7.01072 7.01072,7.01072 3.67082,0 7.01074,-3.33992 7.01074,-7.01072 0.004,-61.51036 -11.45353,-132.5532 -56.71701,-180.61077 -1.84654,-1.61075 -3.60224,-2.23123 -5.68071,-2.29933 z m -162.75708,6.40207 c -24.50637,4.92839 -51.00482,18.926 -66.32011,33.58838 -2.62086,2.56119 -2.67485,7.27626 -0.1134,9.8968 2.56151,2.62052 7.27659,2.67394 9.8968,0.11209 17.55237,-15.71244 37.27668,-25.51968 59.24177,-29.89141 24.6143,-5.60637 52.31902,-2.01982 72.81237,6.40222 3.37572,1.4282 7.74661,-0.34378 9.1748,-3.71951 1.42819,-3.37574 -0.34378,-7.74662 -3.71951,-9.17481 -27.46337,-11.3529 -54.5995,-12.451 -80.97272,-7.21376 z m 104.7326,22.40728 c -2.87491,0.0226 -5.63152,2.00797 -6.56421,4.72749 -0.93267,2.71952 0.0252,5.97875 2.28113,7.76108 22.51409,18.1425 41.94972,49.37019 46.25727,104.95803 3.78521,48.84721 1.16041,88.71226 -4.10274,120.28694 -0.75214,3.67371 2.00634,7.6898 5.70525,8.30629 3.69891,0.61648 7.61079,-2.28788 8.09078,-6.00696 5.45368,-32.71769 8.10686,-73.74145 4.238,-123.66832 -4.53043,-58.46392 -25.76338,-94.08518 -51.39697,-114.74149 -1.25211,-1.04397 -2.87829,-1.6294 -4.50851,-1.62306 z m -99.5929,7.48413 c -3.52917,0.99147 -5.83811,5.10463 -4.84663,8.63378 0.99147,3.52918 5.10461,5.83813 8.63378,4.84666 0,0 25.1234,-6.97687 50.76577,3.11087 25.64239,10.08774 52.85898,36.4142 56.7621,109.73703 0.56719,10.65521 0.7899,20.89521 0.72136,30.70293 -0.22234,3.77957 3.15466,7.38428 6.94068,7.40871 3.78603,0.0243 7.20925,-3.53641 7.03569,-7.31854 0.0705,-10.09056 -0.13937,-20.58141 -0.72136,-31.51446 -4.08445,-76.72935 -35.08796,-110.02454 -65.64385,-122.04525 -11.45846,-4.50777 -22.68647,-6.12651 -32.28091,-6.40209 -8.91179,-0.23348 -18.51452,0.53173 -27.36663,2.84036 z m -145.624734,4.238 c -2.489874,0.12062 -4.858595,1.68182 -5.951223,3.9224 -31.348662,62.6973 -18.259452,120.51236 -18.259452,120.51236 0.814416,3.57638 4.809443,6.08938 8.385822,5.27496 3.576377,-0.81444 6.089368,-4.80945 5.274952,-8.38583 0,0 -11.996334,-52.87734 17.132326,-111.13467 1.118686,-2.17517 0.98219,-4.94329 -0.345091,-6.99785 -1.327272,-2.05455 -3.794569,-3.31696 -6.237334,-3.19137 z m 115.237414,9.24244 c -1.33526,0.004 -2.66696,0.40043 -3.78715,1.12712 -23.76786,14.79446 -50.76234,44.51506 -45.62608,95.53525 5.51324,54.76493 7.83207,82.54482 -8.97193,116.18419 -1.71705,3.29019 -0.23186,7.8556 3.09239,9.50576 3.32423,1.65017 7.85868,0.0728 9.44126,-3.28402 18.447,-36.92843 15.89253,-68.94204 10.36956,-123.80358 -4.60909,-45.78373 18.1492,-69.24627 39.08875,-82.28022 2.5891,-1.56718 3.92894,-4.94354 3.11892,-7.85956 -0.81,-2.91605 -3.69928,-5.11764 -6.72572,-5.12494 z M 42.482985,187.16782 c -18.747251,63.63981 -6.275855,120.0002 -6.131568,120.64762 8.37e-4,0.004 0.04501,0.22543 0.04501,0.22543 0.119168,0.65858 4.148344,23.8044 -13.525519,41.47824 -2.619666,2.589 -2.628238,7.33842 -0.01794,9.93684 2.610304,2.59845 7.359615,2.56823 9.936648,-0.0631 23.150795,-23.15078 17.312662,-54.14715 17.312662,-54.14715 -0.01442,-0.0754 -0.02885,-0.15054 -0.04501,-0.22543 0,0 -11.876458,-53.71778 5.861058,-113.92995 0.655053,-2.11827 0.225684,-4.54167 -1.117273,-6.30595 -3.911176,-4.20098 -10.658628,-3.08125 -12.318075,2.38354 z m 101.982395,0.045 c -19.35382,33.33166 -21.62717,61.57175 -20.15302,78.85385 0.0217,0.19652 0.0518,0.39213 0.0902,0.5861 2.28459,13.23017 5.1475,27.20629 5.59055,36.24839 0.10155,3.71164 3.62479,6.97769 7.33349,6.79823 3.70869,-0.17944 6.90011,-3.77039 6.64287,-7.47451 -0.53615,-10.94204 -3.4678,-24.61171 -5.68072,-37.33043 -0.003,-0.0258 0.003,-0.0643 0,-0.0902 -1.25478,-14.86499 0.41397,-39.86931 18.25945,-70.6032 1.25743,-2.09782 1.30101,-4.86876 0.11008,-7.00507 -3.28584,-4.3208 -9.32284,-4.90697 -12.19288,0.0169 z m 69.88184,15.19367 c -16.03908,13.0866 -30.21341,38.14589 -25.15746,80.97276 0.26365,3.76313 4.04635,6.89946 7.79319,6.46152 3.74686,-0.43794 6.70432,-4.36208 6.09301,-8.08458 -4.64323,-39.33098 7.47735,-58.22374 20.10794,-68.52929 12.63058,-10.30555 26.10425,-11.54177 26.10425,-11.54177 8.15233,-1.06688 13.91045,-1.75667 20.28827,-0.58611 10.83569,2.13437 23.90631,8.38735 34.17448,28.40358 1.6385,3.32126 6.18408,4.82087 9.47724,3.12656 3.29316,-1.6943 4.71586,-6.26453 2.96624,-9.52863 -12.01898,-23.42917 -29.64929,-32.94289 -43.91285,-35.75245 -21.34907,-2.96936 -44.75049,4.67515 -57.93431,15.05841 z m 250.76311,-13.66078 c -4.76338,0.61659 -7.82629,4.90253 -6.49225,9.19736 26.88378,84.92364 10.77533,173.48731 10.77533,173.48731 -0.85218,3.67456 1.84318,7.78259 5.55325,8.46378 3.71008,0.68119 7.68895,-2.20139 8.19769,-5.93902 0,0 17.02644,-91.14484 -11.18109,-180.25007 -0.88127,-2.89678 -3.82584,-5.02771 -6.85293,-4.95936 z m -207.75196,28.17815 c -1.88677,0.0484 -3.83374,0.21003 -5.86105,0.54103 -3.75439,0.42585 -6.72693,4.3528 -6.11763,8.0818 0.60931,3.72899 4.67722,6.50554 8.37188,5.71422 11.73796,-1.91639 17.34745,2.24089 21.4154,7.03328 2.71728,3.13316 4.61411,7.08184 5.77089,10.95566 0,0 2.92578,6.97087 5.04953,22.85813 2.12374,15.88725 3.2616,40.19312 -0.94679,73.26322 -0.46033,3.6354 2.42855,7.36192 6.06395,7.82225 3.63538,0.46033 7.36192,-2.42853 7.82225,-6.06393 4.3566,-34.23471 3.18711,-59.77348 0.9017,-76.87003 -2.13269,-15.95422 -5.20189,-24.24383 -5.63563,-25.38289 -2.54153,-5.64221 -5.19688,-11.77848 -8.34074,-15.64452 -5.55136,-6.53995 -15.2863,-12.64674 -28.49376,-12.30822 z m 153.15395,4.37326 c -4.49138,0.67689 -7.44266,4.60479 -6.44716,8.7465 24.01554,99.54087 -20.55879,235.16367 -20.55879,235.16367 -1.40981,3.52895 0.68046,8.03322 4.28558,9.23494 3.60513,1.2017 7.97991,-1.14756 8.96943,-4.81661 0,0 46.51243,-136.79418 20.91946,-242.87321 -0.71522,-3.18277 -3.91024,-5.61421 -7.16852,-5.45529 z M 228.9097,232.20777 c -2.26007,0.0644 -4.45489,1.30121 -5.68072,3.20104 -8.29247,12.52906 -4.23427,25.78895 -3.24612,32.95718 9.9e-4,0.0116 -10e-4,0.0332 0,0.045 2.49862,18.54011 5.2649,55.12532 -2.88544,96.2566 -0.70819,3.59999 1.92293,7.51982 5.52292,8.22801 3.59999,0.7082 7.51983,-1.92292 8.22802,-5.52291 8.57907,-43.29491 5.66062,-81.28874 3.0207,-100.85528 -1.25578,-9.18118 -3.6239,-16.35706 1.03696,-23.39915 1.43086,-2.11956 1.56445,-5.04475 0.33275,-7.28591 -1.23173,-2.24116 -3.77273,-3.69641 -6.32907,-3.62467 z m -130.88192,3.87732 c -3.430871,0.22458 -6.429149,3.32625 -6.537332,6.76276 -1.362558,26.33835 5.486246,44.73914 6.086482,46.30235 0,0 19.74283,62.78683 -42.244703,114.11029 -2.908369,2.30826 -3.407276,7.08645 -1.0385,9.94574 2.36879,2.85928 7.156391,3.25785 9.965342,0.82959 36.226761,-31.74038 59.682671,-81.03008 46.527791,-129.52938 0,0 -6.59459,-16.30013 -5.32004,-40.93724 0.26251,-3.73105 -2.98005,-7.34357 -6.717681,-7.48411 -0.24024,-0.013 -0.481119,-0.013 -0.721359,0 z m 159.24043,13.11975 c -2.06814,-0.033 -4.13127,0.9066 -5.46387,2.48851 -1.33258,1.58191 -1.90817,3.77468 -1.52432,5.80714 11.84397,67.78784 0.21446,122.21073 -16.09536,161.67503 -1.51327,3.40806 0.2859,7.89411 3.7347,9.31209 3.44881,1.41796 7.88313,-0.50518 9.2047,-3.99206 17.14976,-41.49662 29.284,-98.80343 16.95199,-169.38457 -0.50887,-3.2242 -3.54409,-5.8574 -6.80784,-5.90614 z m 62.80348,0.3156 c -2.06337,0.0566 -4.07987,1.08053 -5.34296,2.7131 -1.2631,1.63258 -1.7479,3.8416 -1.28454,5.85306 2.75461,12.90478 4.48011,28.69634 4.64376,47.92542 0.46819,55.01222 -9.60113,97.93458 -21.4154,129.25886 -1.28689,3.43482 0.66763,7.73092 4.10255,9.01752 3.4349,1.28661 7.73085,-0.66823 9.0172,-4.10325 12.37913,-32.82188 22.75527,-77.526 22.27202,-134.30839 -0.1702,-19.99755 -1.92223,-36.70356 -4.91427,-50.72069 -0.63688,-3.217 -3.80045,-5.73578 -7.07836,-5.63563 z M 75.620504,307.13917 c -3.657675,-0.0187 -7.004675,3.28549 -7.03327,6.9431 -0.38183,21.06996 -6.036074,47.75463 -30.20699,62.98382 -3.381019,1.80358 -4.669874,6.66096 -2.627817,9.90351 2.042072,3.24254 6.979557,4.17875 10.066852,1.90878 29.560521,-18.62498 36.364296,-51.06706 36.789408,-74.52561 0.115127,-3.7321 -3.254303,-7.2102 -6.988183,-7.2136 z m 122.496106,0.5861 c -3.67307,0.075 -6.94327,3.4958 -6.85293,7.16852 0.66469,63.9093 -21.69575,110.68963 -64.92249,150.80953 -2.69114,2.49048 -2.87369,7.20502 -0.38321,9.89616 2.49048,2.69114 7.20502,2.87371 9.89616,0.38323 45.49832,-42.22824 70.13117,-93.90189 69.43099,-161.22417 0.0199,-3.73343 -3.43615,-7.12435 -7.16852,-7.03327 z m -69.70151,25.65339 c -4.17958,28.14349 -17.01434,63.49505 -52.163405,94.58846 -2.87953,2.38974 -3.248275,7.23321 -0.763735,10.03135 2.484541,2.79813 7.337642,3.00497 10.051255,0.42839 37.847445,-33.48046 52.169955,-72.40156 56.717005,-103.01936 0.6363,-3.92444 -2.74346,-8.00736 -6.71768,-8.11532 -3.48832,0.3712 -6.68896,3.33095 -7.12344,6.08648 z m 318.6612,3.69698 c -3.42119,0.12984 -6.4948,3.12094 -6.71767,6.53733 -3.76578,49.29318 -13.07467,85.52636 -13.07467,85.52636 -0.92107,3.5529 1.47381,7.62359 5.02681,8.5443 3.553,0.92072 7.62345,-1.47457 8.5438,-5.02766 0,0 9.62047,-37.43483 13.48043,-87.96095 0.35595,-3.95388 -3.29221,-7.78332 -7.2587,-7.61938 z m -93.73183,2.97561 c -3.4353,0.13173 -6.51608,3.15052 -6.71767,6.58243 -3.98661,52.10403 -16.3285,89.86397 -27.54698,114.56113 -11.21848,24.69717 -20.96455,35.88771 -20.96455,35.88771 -2.39606,2.77376 -2.0524,7.47757 0.72136,9.87363 2.77376,2.39605 7.47757,2.0524 9.87363,-0.72136 0,0 11.28037,-13.14037 23.12863,-39.22401 11.84827,-26.08363 24.6044,-65.56072 28.71919,-119.34015 0.35357,-3.93837 -3.26181,-7.7571 -7.21361,-7.61938 z m -66.59064,30.11682 c -3.19799,0.0543 -6.18178,2.58056 -6.76275,5.72581 -8.67142,43.35711 -23.29573,74.21658 -35.66229,94.18269 -12.36655,19.9661 -22.09167,28.67409 -22.09167,28.67409 -2.71475,2.46689 -2.94028,7.18143 -0.47339,9.89617 2.46687,2.71476 7.18142,2.94028 9.89617,0.4734 0,0 11.4062,-10.39425 24.57135,-31.64971 13.16515,-21.25547 28.49543,-53.74976 37.51077,-98.82646 0.44515,-2.05767 -0.10099,-4.30691 -1.44027,-5.9313 -1.33927,-1.62438 -3.4431,-2.58936 -5.54792,-2.54469 z m -71.09914,20.64896 c -2.96019,-0.0216 -5.81725,2.04918 -6.71767,4.86919 -10.01055,30.08362 -26.76098,60.82973 -54.23732,87.87078 -2.62981,2.56819 -2.67405,7.30401 -0.0926,9.92089 2.58136,2.61688 7.31734,2.63737 9.92124,0.0428 29.23261,-28.76949 47.12159,-61.59942 57.70888,-93.41624 0.72499,-2.09381 0.37789,-4.52836 -0.90335,-6.33613 -1.28124,-1.80777 -3.46332,-2.9418 -5.67908,-2.95139 z m -83.8582,18.34955 c -8.63541,12.19295 -19.74526,25.7646 -33.858886,41.61351 -2.771376,2.6634 -2.677299,7.71013 0.191426,10.26839 2.86874,2.55826 7.89326,2.07618 10.22323,-0.98087 14.32612,-16.08753 25.77693,-30.01882 34.85074,-42.8308 1.51898,-2.07148 1.76048,-5.00603 0.60059,-7.29797 -3.16724,-4.17939 -8.65534,-5.51596 -12.0071,-0.77226 z m 235.56943,7.4842 c -11.89705,47.08987 -27.86257,67.62758 -27.86257,67.62758 -2.39246,2.88756 -1.84842,7.72929 1.12519,10.01391 2.97363,2.28462 7.79206,1.56284 9.96573,-1.49283 0,0 17.93657,-23.57401 30.34226,-72.67712 0.55463,-2.03277 0.12781,-4.31002 -1.12536,-6.00395 -3.91546,-4.45176 -10.96659,-3.04207 -12.44525,2.53241 z m -146.93221,30.92834 c -16.61044,29.73453 -32.55142,45.03998 -32.55142,45.03998 -2.64448,2.53756 -2.74148,7.25267 -0.20356,9.89682 2.53792,2.64417 7.25305,2.74051 9.89686,0.20223 0,0 17.58508,-17.02022 35.07617,-48.33118 1.20528,-2.1174 1.19215,-4.87556 -0.0332,-6.98139 -3.34755,-4.2375 -9.36656,-4.74455 -12.18487,0.17354 z m 70.73846,10.00889 c -2.49913,0.12912 -4.87089,1.71024 -5.95123,3.96749 -13.04696,25.99513 -24.57135,38.14196 -24.57135,38.14196 -2.5146,2.66743 -2.37525,7.38247 0.29249,9.89676 2.66773,2.51428 7.38276,2.37438 9.89673,-0.29365 0,0 13.10758,-14.05624 26.8707,-41.47825 1.13617,-2.17123 1.01629,-4.94645 -0.30287,-7.01162 -1.31916,-2.06516 -3.78679,-3.34072 -6.23447,-3.22269 z"
       id="path3232"
       inkscape:connector-curvature="0"
       style="fill:#000000;fill-opacity:1" />
  </g>
</svg>
