<?xml version="1.0" encoding="UTF-8" standalone="no"?>
<!-- Created with Inkscape (http://www.inkscape.org/) -->

<svg
   xmlns:dc="http://purl.org/dc/elements/1.1/"
   xmlns:cc="http://creativecommons.org/ns#"
   xmlns:rdf="http://www.w3.org/1999/02/22-rdf-syntax-ns#"
   xmlns:svg="http://www.w3.org/2000/svg"
   xmlns="http://www.w3.org/2000/svg"
   xmlns:sodipodi="http://sodipodi.sourceforge.net/DTD/sodipodi-0.dtd"
   xmlns:inkscape="http://www.inkscape.org/namespaces/inkscape"
   width="512"
   height="512"
   id="svg4319"
   version="1.1"
   inkscape:version="0.91 r13725"
   sodipodi:docname="heart.svg">
  <defs
     id="defs4321" />
  <sodipodi:namedview
     id="base"
     pagecolor="#ffffff"
     bordercolor="#666666"
     borderopacity="1.0"
     inkscape:pageopacity="0.0"
     inkscape:pageshadow="2"
     inkscape:zoom="0.7"
     inkscape:cx="233.62625"
     inkscape:cy="286.56905"
     inkscape:document-units="px"
     inkscape:current-layer="layer1"
     showgrid="false"
     inkscape:window-width="1366"
     inkscape:window-height="725"
     inkscape:window-x="0"
     inkscape:window-y="25"
     inkscape:window-maximized="1" />
  <metadata
     id="metadata4324">
    <rdf:RDF>
      <cc:Work
         rdf:about="">
        <dc:format>image/svg+xml</dc:format>
        <dc:type
           rdf:resource="http://purl.org/dc/dcmitype/StillImage" />
        <dc:title />
      </cc:Work>
    </rdf:RDF>
  </metadata>
  <g
     inkscape:label="Layer 1"
     inkscape:groupmode="layer"
     id="layer1"
     transform="translate(0,-540.36218)">
    <path
       style="fill:#000000"
       d="M 248.81686,1014.2129 C 244.57526,1012.3056 71.749604,847.08808 52.022674,826.08197 32.757294,805.56735 15.889704,778.09929 5.248061,749.9118 0.35720509,736.95691 0.03801309,734.38378 8.4308373e-4,707.61035 -0.02931691,685.90898 0.74154109,676.24867 3.229473,667.1481 c 12.393221,-45.33306 41.785861,-74.04956 88.666601,-86.6269 19.496426,-5.23058 55.072936,-5.68287 72.648136,-0.92359 23.08221,6.25055 55.71095,25.68796 80.43265,47.9149 5.11978,4.60312 9.89312,8.36931 10.60742,8.36931 0.71431,0 5.48764,-3.76619 10.60742,-8.36931 24.7217,-22.22694 57.35044,-41.66435 80.43265,-47.9149 17.48606,-4.73513 53.11141,-4.30355 72.64813,0.88011 37.15097,9.85723 63.85525,30.72374 79.1424,61.84127 9.16592,18.65753 12.13734,31.89851 13.22542,58.93386 0.8185,20.33659 0.38686,26.27746 -2.83488,39.01768 -7.63338,30.18596 -26.91536,61.75146 -56.2861,92.14303 -30.59584,31.65926 -185.41071,179.67044 -190.15608,181.79934 -2.71688,1.2188 -5.7674,2.216 -6.77896,2.216 -1.01155,0 -4.05689,-0.9972 -6.76742,-2.216 z"
       id="path4298"
       inkscape:connector-curvature="0" />
  </g>
  <style
     id="style4157"
     type="text/css">
	.st0{enable-background:new    ;}
</style>
</svg>
