<?xml version="1.0" encoding="UTF-8" standalone="no"?>
<!-- Created with Inkscape (http://www.inkscape.org/) -->

<svg
   xmlns:dc="http://purl.org/dc/elements/1.1/"
   xmlns:cc="http://creativecommons.org/ns#"
   xmlns:rdf="http://www.w3.org/1999/02/22-rdf-syntax-ns#"
   xmlns:svg="http://www.w3.org/2000/svg"
   xmlns="http://www.w3.org/2000/svg"
   xmlns:sodipodi="http://sodipodi.sourceforge.net/DTD/sodipodi-0.dtd"
   xmlns:inkscape="http://www.inkscape.org/namespaces/inkscape"
   width="512"
   height="512"
   id="svg4319"
   version="1.1"
   inkscape:version="0.48.4 r9939"
   sodipodi:docname="run-circle-o.svg">
  <defs
     id="defs4321" />
  <sodipodi:namedview
     id="base"
     pagecolor="#ffffff"
     bordercolor="#666666"
     borderopacity="1.0"
     inkscape:pageopacity="0.0"
     inkscape:pageshadow="2"
     inkscape:zoom="0.98994949"
     inkscape:cx="-91.66763"
     inkscape:cy="313.89327"
     inkscape:document-units="px"
     inkscape:current-layer="layer1"
     showgrid="false"
     inkscape:window-width="1920"
     inkscape:window-height="1031"
     inkscape:window-x="0"
     inkscape:window-y="25"
     inkscape:window-maximized="1" />
  <metadata
     id="metadata4324">
    <rdf:RDF>
      <cc:Work
         rdf:about="">
        <dc:format>image/svg+xml</dc:format>
        <dc:type
           rdf:resource="http://purl.org/dc/dcmitype/StillImage" />
        <dc:title />
      </cc:Work>
    </rdf:RDF>
  </metadata>
  <g
     inkscape:label="Layer 1"
     inkscape:groupmode="layer"
     id="layer1">
    <path
       style="fill:#000000;fill-opacity:1;stroke:none;display:inline;filter:url(#filter4253)"
       d="M 256,-1.03e-5 C 114.6151,-1.03e-5 0,114.61509 0,255.99999 c 0,141.3849 114.6151,256.00002 256,256.00002 141.3849,0 256,-114.61512 256,-256.00002 C 512,114.61509 397.3849,-1.03e-5 256,-1.03e-5 z m 0,73.9999993 c 100.51582,0 182,81.484181 182,182.000001 0,100.51582 -81.48418,182 -182,182 -37.83083,0 -72.95295,-11.55723 -102.0625,-31.3125 l 33.40625,-30.75 a 9.9958765,9.9958765 0 0 0 2.75,-4.28125 l 21.40625,-66.625 20.875,-7.4375 59.21875,48.53125 -84.375,52.65625 a 9.9957829,9.9957829 0 1 0 10.5625,16.96875 L 314,355.68749 a 9.9957829,9.9957829 0 0 0 1.03125,-16.1875 l -67.84375,-55.625 a 24.001699,24.001699 0 0 0 1.71875,-4.875 l 13.3125,-56.90625 22.96875,42.34375 a 9.9958765,9.9958765 0 0 0 12.6875,4.40625 l 73.3125,-30.75 a 9.9964772,9.9964772 0 1 0 -7.75,-18.40625 l -64.96875,27.21875 -31.875,-58.71875 a 24.001134,24.001134 0 0 0 -22.4375,-16.625 24.001134,24.001134 0 0 0 -1.9375,0.0625 9.9958765,9.9958765 0 0 0 -0.25,0 9.9958765,9.9958765 0 0 0 -1.6875,0.0937 L 155.5,181.99999 a 9.9958765,9.9958765 0 0 0 -8.71875,10.53125 l 5,79.375 a 9.9958765,9.9958765 0 1 0 19.9375,-1.28125 l -4.40625,-69.90625 52.09375,-6.34375 -17.25,73.6875 a 24.001699,24.001699 0 0 0 -0.21875,1.1875 l -30.0625,93.75 -34.09375,31.375 C 98.74891,360.99411 74,311.3861 74,255.99999 74,155.48417 155.48418,73.999989 256,73.999989 z m 8.75,40.437501 c -13.15855,0 -23.8125,10.65395 -23.8125,23.8125 0,13.15855 10.65395,23.84375 23.8125,23.84375 13.15855,0 23.84375,-10.6852 23.84375,-23.84375 0,-13.15855 -10.6852,-23.8125 -23.84375,-23.8125 z"
       id="path5222"
       inkscape:connector-curvature="0" />
  </g>
</svg>
