<?xml version="1.0" encoding="UTF-8" standalone="no"?>
<!-- Created with Inkscape (http://www.inkscape.org/) -->

<svg
   xmlns:dc="http://purl.org/dc/elements/1.1/"
   xmlns:cc="http://creativecommons.org/ns#"
   xmlns:rdf="http://www.w3.org/1999/02/22-rdf-syntax-ns#"
   xmlns:svg="http://www.w3.org/2000/svg"
   xmlns="http://www.w3.org/2000/svg"
   xmlns:sodipodi="http://sodipodi.sourceforge.net/DTD/sodipodi-0.dtd"
   xmlns:inkscape="http://www.inkscape.org/namespaces/inkscape"
   width="512"
   height="512"
   id="svg4319"
   version="1.1"
   inkscape:version="0.48.4 r9939"
   sodipodi:docname="run.svg">
  <defs
     id="defs4321" />
  <sodipodi:namedview
     id="base"
     pagecolor="#ffffff"
     bordercolor="#666666"
     borderopacity="1.0"
     inkscape:pageopacity="0.0"
     inkscape:pageshadow="2"
     inkscape:zoom="0.12374369"
     inkscape:cx="-670.44216"
     inkscape:cy="-665.47093"
     inkscape:document-units="px"
     inkscape:current-layer="layer1"
     showgrid="false"
     inkscape:window-width="1920"
     inkscape:window-height="1031"
     inkscape:window-x="0"
     inkscape:window-y="25"
     inkscape:window-maximized="1"
     inkscape:object-paths="true"
     inkscape:snap-nodes="true" />
  <metadata
     id="metadata4324">
    <rdf:RDF>
      <cc:Work
         rdf:about="">
        <dc:format>image/svg+xml</dc:format>
        <dc:type
           rdf:resource="http://purl.org/dc/dcmitype/StillImage" />
        <dc:title />
      </cc:Work>
    </rdf:RDF>
  </metadata>
  <g
     inkscape:label="Layer 1"
     inkscape:groupmode="layer"
     id="layer1">
    <path
       d="m 289.01447,24.030891 c -18.58948,0 -33.65769,15.06821 -33.65769,33.65771 0,18.5895 15.06821,33.65771 33.65769,33.65771 18.58948,0 33.65771,-15.06821 33.65771,-33.65771 0,-18.5895 -15.06823,-33.65771 -33.65771,-33.65771 z m -29.0962,80.689919 a 33.907138,33.907138 0 0 0 -2.74574,0.0884 14.121481,14.121481 0 0 0 -0.3543,0 14.121481,14.121481 0 0 0 -2.39148,0.13284 l -119.75057,14.526 a 14.121481,14.121481 0 0 0 -12.35593,14.88028 l 7.08584,112.13328 a 14.121481,14.121481 0 1 0 28.16617,-1.81575 l -6.24438,-98.75872 73.60408,-8.94586 -24.35753,104.11744 a 33.907939,33.907939 0 0 0 -0.31002,1.68288 l -42.4707,132.41657 -95.924474,88.3515 a 14.121481,14.121481 0 1 0 19.13176,20.7704 l 98.625934,-90.83162 a 14.121481,14.121481 0 0 0 3.89722,-6.06723 l 30.24764,-94.10873 29.49477,-10.49588 83.65711,68.55542 -119.21912,74.40117 a 14.121351,14.121351 0 1 0 14.92453,23.95897 l 135.9594,-84.85277 a 14.121351,14.121351 0 0 0 1.46147,-22.89609 l -95.88016,-78.5642 a 33.907939,33.907939 0 0 0 2.43572,-6.86439 l 18.82175,-80.42419 32.46197,59.83099 a 14.121481,14.121481 0 0 0 17.89174,6.24438 l 103.58601,-43.44499 a 14.122334,14.122334 0 0 0 -10.93875,-26.04045 l -91.80582,38.48495 -45.03933,-82.94856 a 33.907138,33.907138 0 0 0 -31.66481,-23.5161 z"
       id="path9089-1"
       inkscape:connector-curvature="0"
       style="fill:#000000;fill-opacity:1;stroke:none;display:inline;filter:url(#filter4253)" />
  </g>
</svg>
