<?xml version="1.0" encoding="UTF-8" standalone="no"?>
<!-- Created with Inkscape (http://www.inkscape.org/) -->

<svg
   xmlns:dc="http://purl.org/dc/elements/1.1/"
   xmlns:cc="http://creativecommons.org/ns#"
   xmlns:rdf="http://www.w3.org/1999/02/22-rdf-syntax-ns#"
   xmlns:svg="http://www.w3.org/2000/svg"
   xmlns="http://www.w3.org/2000/svg"
   xmlns:sodipodi="http://sodipodi.sourceforge.net/DTD/sodipodi-0.dtd"
   xmlns:inkscape="http://www.inkscape.org/namespaces/inkscape"
   width="512"
   height="512"
   id="svg4319"
   version="1.1"
   inkscape:version="0.48.4 r9939"
   sodipodi:docname="strength.svg">
  <defs
     id="defs4321" />
  <sodipodi:namedview
     id="base"
     pagecolor="#ffffff"
     bordercolor="#666666"
     borderopacity="1.0"
     inkscape:pageopacity="0.0"
     inkscape:pageshadow="2"
     inkscape:zoom="1.979899"
     inkscape:cx="196.7341"
     inkscape:cy="247.77479"
     inkscape:document-units="px"
     inkscape:current-layer="layer1"
     showgrid="false"
     inkscape:window-width="1920"
     inkscape:window-height="1031"
     inkscape:window-x="0"
     inkscape:window-y="25"
     inkscape:window-maximized="1">
    <sodipodi:guide
       position="0,0"
       orientation="0,512"
       id="guide5226" />
    <sodipodi:guide
       position="512,0"
       orientation="-512,0"
       id="guide5228" />
    <sodipodi:guide
       position="512,512"
       orientation="0,-512"
       id="guide5230" />
    <sodipodi:guide
       position="0,512"
       orientation="512,0"
       id="guide5232" />
  </sodipodi:namedview>
  <metadata
     id="metadata4324">
    <rdf:RDF>
      <cc:Work
         rdf:about="">
        <dc:format>image/svg+xml</dc:format>
        <dc:type
           rdf:resource="http://purl.org/dc/dcmitype/StillImage" />
        <dc:title />
      </cc:Work>
    </rdf:RDF>
  </metadata>
  <g
     inkscape:label="Layer 1"
     inkscape:groupmode="layer"
     id="layer1"
     transform="translate(0,-433.80192)">
    <path
       style="fill:#000000"
       d="m 257.88054,540.36217 c -19.11544,0 -34.60997,15.49453 -34.60997,34.60998 0,19.11546 15.49453,34.60998 34.60997,34.60998 19.11545,0 34.60999,-15.49452 34.60999,-34.60998 0,-19.11545 -15.49454,-34.60998 -34.60999,-34.60998 z m 49.95678,70.90491 c -5.74009,0.0822 -11.2495,3.91103 -13.32784,9.26229 -2.07835,5.35125 -0.59747,11.89497 3.5824,15.82996 l 129.24095,125.41562 -127.64706,0 0,-32.69731 c 0.0505,-3.86443 -1.51903,-7.72462 -4.25183,-10.45742 -2.7328,-2.7328 -6.59299,-4.30229 -10.45742,-4.25183 -3.79609,0.0576 -7.54525,1.67528 -10.1916,4.39748 -2.64635,2.72221 -4.15748,6.51557 -4.10779,10.31177 l 0,32.69731 -27.46027,0 0,-61.84257 c 0.0507,-3.87213 -1.52524,-7.73992 -4.26771,-10.47393 -2.74247,-2.734 -6.61512,-4.29801 -10.48707,-4.2353 -3.79609,0.0576 -7.54525,1.67527 -10.1916,4.39747 -2.64636,2.7222 -4.15749,6.51556 -4.10781,10.31176 l 0,61.84257 -124.049452,0 124.459322,-120.72504 c 4.23558,-3.98693 5.68966,-10.6535 3.49902,-16.04208 -2.19064,-5.38858 -7.88385,-9.14954 -13.69985,-9.05017 -3.71583,0.0596 -7.38677,1.61146 -10.0187,4.23518 l -145.908375,141.58211 -13.288182,0 0,-48.49949 c 0,-7.99195 -7.086592,-13.84401 -14.754777,-13.84401 l -5.646899,0 C 7.0866023,699.43145 7.5000003e-7,705.28351 7.5000003e-7,713.27546 l 0,110.34206 c 0,7.99193 7.08660154999997,13.84399 14.75477624999997,13.84399 l 5.646899,0 c 7.668185,0 14.754777,-5.85206 14.754777,-13.84399 l 0,-48.72721 8.187769,0 c 0.71525,5.39517 4.726341,10.21573 9.901597,11.89981 5.175256,1.68409 11.25512,0.14724 15.008476,-3.79379 l 8.333711,-8.10602 137.574664,0 0,49.13707 c 0,3.80318 1.56563,7.58295 4.25489,10.27221 2.68926,2.68925 6.46902,4.25488 10.27221,4.25488 3.80318,0 7.58294,-1.56563 10.2722,-4.25488 2.68926,-2.68926 4.31017,-6.46943 4.25489,-10.27221 l 0,-49.13707 27.46027,0 0,49.13707 c -0.18705,3.9127 1.29129,7.87785 3.99421,10.71306 2.70291,2.83522 6.59294,4.50122 10.51011,4.50122 3.91717,0 7.8072,-1.666 10.51011,-4.50122 2.70292,-2.83521 4.18126,-6.80036 3.99421,-10.71306 l 0,-49.13707 141.17227,0 3.50655,3.41546 c 3.19242,3.10745 7.87053,4.61527 12.27671,3.95698 4.40618,-0.6583 8.4393,-3.46799 10.58407,-7.37283 l 9.61818,0 0,48.72758 c 0,7.99193 7.08658,13.84399 14.75478,13.84399 l 5.64688,0 C 504.9134,837.46149 512,831.60943 512,823.6175 l 0,-110.34207 c 0,-7.99194 -7.0866,-13.844 -14.75479,-13.844 l -5.64688,0 c -7.6682,0 -14.75478,5.85206 -14.75478,13.844 l 0,48.49949 -9.20831,0 c -0.73256,-1.59267 -1.75637,-3.05082 -3.00561,-4.28071 L 318.31139,615.50226 c -2.73946,-2.73083 -6.60644,-4.29444 -10.47407,-4.23518 z m -293.082543,101.27973 5.6469,0 c 1.404687,0 1.639411,0.64734 1.639411,0.72865 l 0,110.34206 c 0,0.0814 -0.234725,0.72864 -1.639411,0.72864 l -5.646899,0 c -1.404687,0 -1.639423,-0.64733 -1.639423,-0.72864 l 0,-110.34206 c 0,-0.0814 0.234736,-0.72865 1.639422,-0.72865 z m 476.843553,0 5.64688,0 c 1.40471,0 1.63943,0.64734 1.63943,0.72865 l 0,110.34206 c 0,0.0814 -0.23472,0.72864 -1.63943,0.72864 l -5.64688,0 c -1.40471,0 -1.63942,-0.64733 -1.63942,-0.72864 l 0,-110.34206 c 0,-0.0814 0.23471,-0.72865 1.63942,-0.72865 z"
       id="path3119"
       inkscape:connector-curvature="0"
       sodipodi:nodetypes="ssssscsccccscsccccscsccccsccccssssssssccscccssssscccsssccccsccsssssssscccccssssssssssssssssss" />
  </g>
</svg>
