<?xml version="1.0" encoding="UTF-8" standalone="no"?>
<!-- Created with Inkscape (http://www.inkscape.org/) -->

<svg
   xmlns:dc="http://purl.org/dc/elements/1.1/"
   xmlns:cc="http://creativecommons.org/ns#"
   xmlns:rdf="http://www.w3.org/1999/02/22-rdf-syntax-ns#"
   xmlns:svg="http://www.w3.org/2000/svg"
   xmlns="http://www.w3.org/2000/svg"
   xmlns:sodipodi="http://sodipodi.sourceforge.net/DTD/sodipodi-0.dtd"
   xmlns:inkscape="http://www.inkscape.org/namespaces/inkscape"
   width="512"
   height="512"
   id="svg4319"
   version="1.1"
   inkscape:version="0.48.4 r9939"
   sodipodi:docname="strength-circle-o.svg">
  <defs
     id="defs4321" />
  <sodipodi:namedview
     id="base"
     pagecolor="#ffffff"
     bordercolor="#666666"
     borderopacity="1.0"
     inkscape:pageopacity="0.0"
     inkscape:pageshadow="2"
     inkscape:zoom="1.4"
     inkscape:cx="290.72326"
     inkscape:cy="284.99058"
     inkscape:document-units="px"
     inkscape:current-layer="layer1"
     showgrid="false"
     inkscape:window-width="1920"
     inkscape:window-height="1031"
     inkscape:window-x="0"
     inkscape:window-y="25"
     inkscape:window-maximized="1" />
  <metadata
     id="metadata4324">
    <rdf:RDF>
      <cc:Work
         rdf:about="">
        <dc:format>image/svg+xml</dc:format>
        <dc:type
           rdf:resource="http://purl.org/dc/dcmitype/StillImage" />
        <dc:title />
      </cc:Work>
    </rdf:RDF>
  </metadata>
  <g
     inkscape:label="Layer 1"
     inkscape:groupmode="layer"
     id="layer1"
     transform="translate(0,-540.3622)">
    <path
       style="fill:#000000"
       d="m 256,540.36216 c -141.3849,0 -256,114.6151 -256,256 0,141.3849 114.6151,256.00004 256,256.00004 141.3849,0 256,-114.61514 256,-256.00004 0,-141.3849 -114.6151,-256 -256,-256 z m 0,74 c 100.51582,0 182,81.48418 182,182 0,17.84564 -2.58762,35.07862 -7.375,51.375 0,-11.79167 0,-23.58333 0,-35.375 0,-5.45195 -4.83141,-9.4375 -10.0625,-9.4375 -1.28125,0 -2.5625,0 -3.84375,0 -5.2311,0 -10.0625,3.98555 -10.0625,9.4375 0,11.05208 0,22.04196 0,33.09404 l -6.11607,0 c -0.50482,-1.08249 -1.20734,-2.07269 -2.0625,-2.90654 -33.27083,-32.29167 -66.54167,-64.58333 -99.8125,-96.875 -1.87374,-1.8605 -4.51615,-2.92208 -7.15625,-2.875 -3.902,0.0746 -7.63676,2.68535 -9.04711,6.32432 -1.41035,3.63897 -0.41047,8.08472 2.42211,10.76943 29.38542,28.52083 58.77083,57.04167 88.15625,85.5625 -29.02083,0 -58.04167,0 -87.0625,0 0,-7.4375 0,-14.875 0,-22.3125 0.0337,-2.64048 -1.0413,-5.27767 -2.91146,-7.14202 -1.87016,-1.86435 -4.51068,-2.9312 -7.15104,-2.88923 -2.58829,0.0405 -5.1441,1.14418 -6.94831,3.00044 -1.80422,1.85626 -2.83477,4.44242 -2.80169,7.03081 0,7.4375 0,14.875 0,22.3125 -6.23958,0 -12.47917,0 -18.71875,0 0,-14.0625 0,-28.125 0,-42.1875 0.0337,-2.64048 -1.0413,-5.27767 -2.91146,-7.14202 -1.87016,-1.86435 -4.51068,-2.9312 -7.15104,-2.88923 -2.58829,0.0405 -5.1441,1.14418 -6.94831,3.00044 -1.80422,1.85626 -2.83477,4.44242 -2.80169,7.03081 0,14.0625 0,28.125 0,42.1875 -28.20833,0 -56.41667,0 -84.625,0 28.29167,-27.44792 56.58333,-54.89583 84.875,-82.34375 2.892,-2.71637 3.88902,-7.26233 2.39928,-10.9397 -1.48973,-3.67736 -5.36961,-6.24765 -9.33678,-6.1853 -2.53602,0.0346 -5.04383,1.08813 -6.84375,2.875 -33.17708,32.19792 -66.35417,64.39583 -99.53125,96.59375 -1.88542,0 -7.34226,0 -9.22768,0 0,-11.03125 0,-22.0625 0,-33.09375 0,-5.45196 -4.8314,-9.4375 -10.0625,-9.4375 -1.28125,0 -2.5625,0 -3.84375,0 -5.23109,0 -10.0625,3.98554 -10.0625,9.4375 0,11.79167 0,23.58333 0,35.375 C 76.58762,831.44079 74,814.20781 74,796.36216 c 0,-100.51582 81.48418,-182 182,-182 z m 1.44643,80.0625 c -13.04022,0 -23.625,10.55353 -23.625,23.59375 0,13.04021 10.58478,23.625 23.625,23.625 13.0402,0 23.59375,-10.58479 23.59375,-23.625 0,-13.04022 -10.55355,-23.59375 -23.59375,-23.59375 z M 91.4375,811.89341 c 1.28125,0 2.5625,0 3.84375,0 0.95825,0 1.125,0.41328 1.125,0.46875 0,23.84375 0,47.6875 0,71.53125 -2.16941,-3.94705 -4.21556,-7.97525 -6.09375,-12.09375 0,-19.8125 0,-39.625 0,-59.4375 0,-0.0556 0.16674,-0.46875 1.125,-0.46875 z m 325.28125,0 c 1.28125,0 2.5625,0 3.84375,0 0.95826,0 1.125,0.41328 1.125,0.46875 0,19.8125 0,39.625 0,59.4375 -1.8782,4.1185 -3.92435,8.1467 -6.09375,12.09375 0,-23.84375 0,-47.6875 0,-71.53125 0,-0.0556 0.16674,-0.46875 1.125,-0.46875 z m -10.0625,42.49979 c 0,11.10417 0,22.14604 0,33.25021 0,2.59617 1.09922,4.87055 2.8125,6.53125 -32.32327,50.61339 -88.96102,84.18755 -153.46875,84.18755 -64.50773,0 -121.14548,-33.57415 -153.46875,-84.18755 1.71328,-1.66069 2.8125,-3.93508 2.8125,-6.53125 0,-11.08333 0,-22.16667 0,-33.25 0.72917,0 5.02976,0 5.75893,0 0.49469,3.67073 3.22559,6.94723 6.74713,8.09513 3.52155,1.14791 7.65874,0.11018 10.22162,-2.56388 1.89583,-1.84375 3.79167,-3.6875 5.6875,-5.53125 31.29167,0 62.58333,0 93.875,0 0,11.17708 0,22.35417 0,33.53125 0.0713,2.54726 1.17051,5.05114 2.99743,6.82766 1.82692,1.77651 4.36056,2.80528 6.90882,2.80528 2.54826,0 5.0819,-1.02877 6.90882,-2.80528 1.82692,-1.77652 2.92616,-4.2804 2.99743,-6.82766 0,-11.17708 0,-22.35417 0,-33.53125 6.23958,0 12.47917,0 18.71875,0 0,11.17708 0,22.35417 0,33.53125 0,2.59345 1.06763,5.17093 2.90147,7.00478 1.83385,1.83384 4.41133,2.90147 7.00478,2.90147 2.59345,0 5.17093,-1.06763 7.00478,-2.90147 1.83384,-1.83385 2.90147,-4.41133 2.90147,-7.00478 0,-11.17708 0,-22.35417 0,-33.53125 32.09375,0 64.1875,0 96.28125,0 0.80208,0.78125 1.60417,1.5625 2.40625,2.34375 2.17969,2.11815 5.37209,3.14411 8.37767,2.69237 3.00559,-0.45175 5.75535,-2.37102 7.21608,-5.03633 z"
       id="path3821"
       inkscape:connector-curvature="0"
       sodipodi:nodetypes="ssssssscsssscccccsccccscsccccscsccccsccccsssscssssssssssccsssssccsscscscsccsccccssscccssssscccscc" />
  </g>
</svg>
