<?xml version="1.0" encoding="UTF-8" standalone="no"?>
<!-- Created with Inkscape (http://www.inkscape.org/) -->

<svg
   xmlns:dc="http://purl.org/dc/elements/1.1/"
   xmlns:cc="http://creativecommons.org/ns#"
   xmlns:rdf="http://www.w3.org/1999/02/22-rdf-syntax-ns#"
   xmlns:svg="http://www.w3.org/2000/svg"
   xmlns="http://www.w3.org/2000/svg"
   xmlns:sodipodi="http://sodipodi.sourceforge.net/DTD/sodipodi-0.dtd"
   xmlns:inkscape="http://www.inkscape.org/namespaces/inkscape"
   width="512"
   height="512"
   id="svg4319"
   version="1.1"
   inkscape:version="0.48.4 r9939"
   sodipodi:docname="strength-circle.svg">
  <defs
     id="defs4321" />
  <sodipodi:namedview
     id="base"
     pagecolor="#ffffff"
     bordercolor="#666666"
     borderopacity="1.0"
     inkscape:pageopacity="0.0"
     inkscape:pageshadow="2"
     inkscape:zoom="2.8"
     inkscape:cx="210.12932"
     inkscape:cy="142.15506"
     inkscape:document-units="px"
     inkscape:current-layer="layer1"
     showgrid="false"
     inkscape:window-width="1920"
     inkscape:window-height="1031"
     inkscape:window-x="0"
     inkscape:window-y="25"
     inkscape:window-maximized="1" />
  <metadata
     id="metadata4324">
    <rdf:RDF>
      <cc:Work
         rdf:about="">
        <dc:format>image/svg+xml</dc:format>
        <dc:type
           rdf:resource="http://purl.org/dc/dcmitype/StillImage" />
        <dc:title />
      </cc:Work>
    </rdf:RDF>
  </metadata>
  <g
     inkscape:label="Layer 1"
     inkscape:groupmode="layer"
     id="layer1">
    <path
       style="display:inline"
       d="M 256,2.5e-5 C 114.61509,2.5e-5 1.0000001e-6,114.61513 1.0000001e-6,256.00002 1.0000001e-6,277.03705 2.558142,297.46894 7.343751,317.03127 l 0,-38.21875 c 0,-7.76227 6.89594,-13.46875 14.34375,-13.46875 l 5.5,0 c 7.44782,0 14.3125,5.70648 14.3125,13.46875 l 0,47.09375 12.965327,0 141.718752,-137.49999 c 2.55156,-2.54971 6.11218,-4.06097 9.71875,-4.125 5.65023,-0.0976 11.18174,3.55618 13.3094,8.79142 2.12765,5.23524 0.71328,11.71191 -3.40315,15.58357 l -120.875002,117.25 120.468752,0 0,-60.0625 c -0.0468,-3.68915 1.42403,-7.37492 3.99793,-10.01822 2.5739,-2.64331 6.21923,-4.2117 9.90832,-4.26303 3.75678,-0.056 7.51225,1.46456 10.17189,4.11839 2.65964,2.65383 4.18836,6.40597 4.14061,10.16286 l 0,60.0625 26.6875,0 0,-31.75 c -0.0469,-3.68402 1.41952,-7.3648 3.98687,-10.00732 2.56735,-2.64253 6.20429,-4.21451 9.88813,-4.27393 3.75161,-0.0476 7.49854,1.47671 10.15154,4.12971 2.653,2.653 4.17727,6.39993 4.12971,10.15154 l 0,31.75 124,0 -125.53125,-121.8125 c -4.06277,-3.8218 -5.50281,-10.18034 -3.48307,-15.37966 2.01973,-5.19932 7.37451,-8.91833 12.95182,-8.99533 3.75251,-0.05 7.50136,1.47256 10.15625,4.125 l 142.125,137.90624 c 1.20858,1.19521 2.19847,2.61059 2.90625,4.15598 l 8.90967,0 0,-47.09353 c 0,-7.76227 6.86467,-13.46875 14.3125,-13.46875 l 5.5,0 c 7.44782,0 14.34375,5.70648 14.34375,13.46875 l 0,38.21875 C 509.44186,297.46889 512,277.03701 512,255.99997 512,114.61508 397.3849,-2.5e-5 256,-2.5e-5 z m 1.87158,110.843755 c 18.56611,0 33.625,15.05888 33.625,33.625 0,18.56612 -15.05889,33.625 -33.625,33.625 -18.56611,0 -33.625,-15.05888 -33.625,-33.625 0,-18.56612 15.05889,-33.625 33.625,-33.625 z M 21.687501,278.09377 c -1.36432,0 -1.59375,0.63965 -1.59375,0.71875 l 0,76.78125 c 2.643743,6.25529 5.54114,12.3541 8.65625,18.34375 l 0,-95.125 c 0,-0.079 -0.19818,-0.71875 -1.5625,-0.71875 z m 463.124999,0 c -1.36434,0 -1.5625,0.63965 -1.5625,0.71875 l 0,95.125 c 3.11511,-5.98965 6.01251,-12.08846 8.65625,-18.34375 l 0,-76.78125 c 0,-0.079 -0.22941,-0.71875 -1.59375,-0.71875 z M 470.5,338.656 l -9.28467,0 c -2.08305,3.79708 -6.00413,6.52916 -10.28772,7.16779 -4.28358,0.63862 -8.831,-0.83071 -11.93103,-3.85507 l -3.40625,-3.3125 -137.125,0 0,47.71875 c 0.23026,3.82666 -1.18216,7.72475 -3.81025,10.51572 -2.62808,2.79098 -6.43429,4.43498 -10.26788,4.43498 -3.83358,0 -7.63979,-1.644 -10.26787,-4.43498 -2.62809,-2.79097 -4.04051,-6.68906 -3.81025,-10.51572 l 0,-47.71875 -26.6875,0 0,47.71875 c -0.0217,3.67997 -1.55198,7.32872 -4.16181,9.92321 -2.60983,2.5945 -6.26753,4.10326 -9.94757,4.10326 -3.68003,0 -7.33773,-1.50876 -9.94756,-4.10326 -2.60983,-2.59449 -4.14012,-6.24324 -4.16181,-9.92321 l 0,-47.71875 -133.625002,0 -8.09375,7.875 c -3.646359,3.82387 -9.548954,5.31345 -14.573109,3.67768 -5.024154,-1.63578 -8.918303,-6.315 -9.614389,-11.55268 l -7.996579,0 0,47.3125 c 0,2.50813 -0.713403,4.79749 -1.9375,6.75 C 84.933629,464.39335 164.89705,512.00003 256,512.00003 c 91.10294,0 171.06637,-47.60668 216.4375,-119.28126 -1.2241,-1.95251 -1.9375,-4.24187 -1.9375,-6.75 z"
       id="path3096-6"
       inkscape:connector-curvature="0"
       sodipodi:nodetypes="cscssssccccsccccscsccccscsccccscccccsssscsccsssssssccsssssccsssccsccccsssccccsssccccsccscscsc" />
  </g>
</svg>
