<?xml version="1.0" encoding="UTF-8" standalone="no"?>
<!-- Created with Inkscape (http://www.inkscape.org/) -->

<svg
   xmlns:dc="http://purl.org/dc/elements/1.1/"
   xmlns:cc="http://creativecommons.org/ns#"
   xmlns:rdf="http://www.w3.org/1999/02/22-rdf-syntax-ns#"
   xmlns:svg="http://www.w3.org/2000/svg"
   xmlns="http://www.w3.org/2000/svg"
   xmlns:sodipodi="http://sodipodi.sourceforge.net/DTD/sodipodi-0.dtd"
   xmlns:inkscape="http://www.inkscape.org/namespaces/inkscape"
   width="512"
   height="512"
   id="svg4319"
   version="1.1"
   inkscape:version="0.48.4 r9939">
  <defs
     id="defs4321" />
  <sodipodi:namedview
     id="base"
     pagecolor="#ffffff"
     bordercolor="#666666"
     borderopacity="1.0"
     inkscape:pageopacity="0.0"
     inkscape:pageshadow="2"
     inkscape:zoom="0.7"
     inkscape:cx="220.8008"
     inkscape:cy="434.94495"
     inkscape:document-units="px"
     inkscape:current-layer="layer1"
     showgrid="false"
     inkscape:window-width="1920"
     inkscape:window-height="1031"
     inkscape:window-x="0"
     inkscape:window-y="25"
     inkscape:window-maximized="1">
    <sodipodi:guide
       position="0,0"
       orientation="0,512"
       id="guide5226" />
    <sodipodi:guide
       position="512,0"
       orientation="-512,0"
       id="guide5228" />
    <sodipodi:guide
       position="512,512"
       orientation="0,-512"
       id="guide5230" />
    <sodipodi:guide
       position="0,512"
       orientation="512,0"
       id="guide5232" />
  </sodipodi:namedview>
  <metadata
     id="metadata4324">
    <rdf:RDF>
      <cc:Work
         rdf:about="">
        <dc:format>image/svg+xml</dc:format>
        <dc:type
           rdf:resource="http://purl.org/dc/dcmitype/StillImage" />
        <dc:title></dc:title>
      </cc:Work>
    </rdf:RDF>
  </metadata>
  <g
     inkscape:label="Layer 1"
     inkscape:groupmode="layer"
     id="layer1"
     transform="translate(0,-540.36218)">
    <path
       style="font-size:medium;font-style:normal;font-variant:normal;font-weight:normal;font-stretch:normal;text-indent:0;text-align:start;text-decoration:none;line-height:normal;letter-spacing:normal;word-spacing:normal;text-transform:none;direction:ltr;block-progression:tb;writing-mode:lr-tb;text-anchor:start;baseline-shift:baseline;color:#000000;fill:#000000;fill-opacity:1;stroke:none;stroke-width:19.92718506;marker:none;visibility:visible;display:inline;overflow:visible;enable-background:accumulate;font-family:Sans;-inkscape-font-specification:Sans"
       d="m 265.52613,676.37181 c -18.5895,0 -33.65625,15.09799 -33.65625,33.6875 0,18.5895 15.06675,33.65625 33.65625,33.65625 18.5895,0 33.65625,-15.06675 33.65625,-33.65625 0,-18.58951 -15.06675,-33.6875 -33.65625,-33.6875 z m -111.43749,2.1875 c -3.17469,0.0507 -6.33346,1.1965 -8.78125,3.21875 l -71.156256,58.59375 c -3.01646,2.2922 -5.02973,5.86197 -5.46875,9.625 -0.43902,3.76305 0.7172,7.66875 3.125,10.59375 2.4078,2.92501 6.03524,4.83268 9.8125,5.125 3.77726,0.29233 7.63958,-1.01151 10.46875,-3.53125 l 61.250006,-50.46875 31.74999,31.6875 c -0.48847,0.34768 -0.99978,0.68855 -1.46875,1.0625 l -93.437496,72.21875 c 2.83503,-0.68175 5.7318,-1.29514 8.687501,-1.84375 5.302395,-0.98419 10.667835,-1.67607 16.031255,-1.96875 5.41121,-0.29528 10.81949,-0.18199 16.21875,0.3125 5.37809,0.49253 10.60195,1.33752 15.78125,2.4375 5.14369,1.09238 10.17999,2.37914 15.0625,3.71875 4.91745,1.34917 9.61469,2.73997 14.09374,3.90625 4.35907,1.13501 8.62259,2.10036 12.8125,2.84375 l 36.21875,-28 c 2.28624,-1.71568 4.3118,-3.73419 6.09375,-5.96875 l 87.25,-0.15625 c 0.0147,3e-5 0.0477,3e-5 0.0625,0 l 103.78125,-0.375 c 3.80583,0.17035 7.65697,-1.30026 10.40625,-3.9375 2.74926,-2.63724 4.35572,-6.40912 4.34375,-10.21875 -0.0116,-3.80964 -1.64048,-7.59884 -4.40625,-10.21875 -2.76576,-2.61994 -6.60154,-4.03799 -10.40625,-3.84375 l -103.8125,0.40625 -0.0625,0 -80.5,0.0625 c -0.2616,-1.2288 -0.53877,-2.43317 -0.9375,-3.625 -1.12042,-3.3491 -2.8107,-6.5327 -4.90625,-9.375 -0.0194,-0.0264 -0.043,-0.0675 -0.0625,-0.0937 -0.66813,-1.04428 -1.45804,-2.00942 -2.375,-2.84375 l -0.40625,-0.40625 c -0.36068,-0.37709 -0.71615,-0.73366 -1.09375,-1.09375 l -63.78124,-63.7188 c -2.66409,-2.65568 -6.4263,-4.18263 -10.1875,-4.125 z m 130.81249,160.53125 c -1.362,-0.0203 -2.72453,-0.003 -4.09375,0.0312 -5.43285,0.13712 -10.82683,0.70155 -16.125,1.5625 -5.29962,0.86122 -10.41255,2.00902 -15.40625,3.28125 -5.03196,1.28201 -9.87277,2.68071 -14.53125,3.96875 -4.67043,1.29134 -9.20639,2.49626 -13.59375,3.46875 -4.37527,0.9698 -8.61611,1.72035 -12.75,2.15625 -4.15243,0.4379 -8.24464,0.56881 -12.3125,0.40625 -4.03334,-0.16117 -8.24477,-0.65909 -12.53125,-1.40625 -4.306,-0.75056 -8.70432,-1.73889 -13.1875,-2.90625 -4.47903,-1.16628 -9.14504,-2.55707 -14.06249,-3.90625 -4.88252,-1.3396 -9.88763,-2.62635 -15.03125,-3.71875 -5.17933,-1.09996 -10.46573,-1.94494 -15.84375,-2.4375 -2.6996,-0.24723 -5.38963,-0.41819 -8.09375,-0.46875 -2.70412,-0.0506 -5.41938,0.009 -8.125,0.15625 -5.36341,0.29268 -10.728885,0.95334 -16.031256,1.9375 -5.286452,0.98124 -10.353716,2.23246 -15.25,3.53125 a 13.465904,13.465904 0 1 0 6.90625,26.03125 c 4.615436,-1.22429 9.024712,-2.30947 13.250001,-3.09375 4.209375,-0.7813 8.445445,-1.30487 12.593755,-1.53125 4.1005,-0.22377 8.19999,-0.12663 12.3125,0.25 4.1337,0.3786 8.35509,1.04865 12.6875,1.96875 4.36812,0.9277 8.8708,2.07365 13.5,3.34375 4.59431,1.26052 9.37359,2.68956 14.40625,4 5.02855,1.30936 10.138,2.46762 15.34374,3.375 5.22524,0.9108 10.61537,1.56234 16.09375,1.78125 5.44388,0.21756 10.82823,0.0339 16.1875,-0.53125 5.37787,-0.56708 10.64474,-1.51771 15.78125,-2.65625 5.12436,-1.13585 10.09617,-2.44265 14.9375,-3.78125 4.85326,-1.3419 9.52026,-2.70244 14,-3.84375 4.51804,-1.15105 8.88163,-2.128 13.09375,-2.8125 4.21355,-0.68471 8.38986,-1.08456 12.46875,-1.1875 4.03486,-0.10183 8.14706,0.0942 12.34375,0.59375 4.20536,0.50046 8.45938,1.27867 12.8125,2.28125 4.38952,1.01095 8.95849,2.24861 13.6875,3.5625 4.70398,1.30693 9.57526,2.71423 14.625,3.96875 5.01956,1.24704 10.17215,2.35577 15.5,3.15625 5.36334,0.80579 10.76423,1.25615 16.15625,1.3125 5.42804,0.0568 10.80944,-0.29294 16.15625,-1 5.32824,-0.7046 10.53496,-1.75578 15.625,-2.96875 5.06053,-1.20597 9.96891,-2.54399 14.75,-3.875 4.78056,-1.33089 9.38662,-2.61913 13.8125,-3.6875 a 13.468786,13.468786 0 1 0 -6.3125,-26.1875 c -5.08584,1.22767 -9.98759,2.62037 -14.71875,3.9375 -4.73065,1.31697 -9.33004,2.56423 -13.78125,3.625 -4.4217,1.05371 -8.69152,1.91553 -12.875,2.46875 l -0.125,0 c -4.12182,0.53947 -8.20742,0.79229 -12.25,0.75 -4.11974,-0.043 -8.2891,-0.37675 -12.4375,-1 -4.18387,-0.6286 -8.53907,-1.54023 -13.03125,-2.65625 -4.46196,-1.1085 -9.06724,-2.44548 -13.875,-3.78125 -4.78273,-1.32881 -9.72153,-2.66406 -14.84375,-3.84375 -5.15864,-1.1881 -10.3811,-2.14977 -15.6875,-2.78125 -3.98626,-0.47445 -8.039,-0.78294 -12.125,-0.84375 z m 0,55.96875 c -1.362,-0.0203 -2.72453,-0.003 -4.09375,0.0312 -5.43284,0.13712 -10.82685,0.67031 -16.125,1.53125 -5.29967,0.86121 -10.41255,2.04025 -15.40625,3.3125 -5.03199,1.282 -9.8728,2.68073 -14.53125,3.96875 -4.67038,1.29133 -9.20633,2.49623 -13.59375,3.46875 -4.37521,0.96979 -8.6161,1.68909 -12.75,2.125 -4.15243,0.43789 -8.24458,0.60005 -12.3125,0.4375 -4.03339,-0.16118 -8.24478,-0.65909 -12.53125,-1.40625 -4.30597,-0.75055 -8.7043,-1.7389 -13.1875,-2.90625 -4.47903,-1.16628 -9.14503,-2.55707 -14.06249,-3.90625 -4.88248,-1.33959 -9.88759,-2.62634 -15.03125,-3.71875 -5.17924,-1.09992 -10.4656,-1.97622 -15.84375,-2.46875 -2.69962,-0.24724 -5.38963,-0.38694 -8.09375,-0.4375 -2.70412,-0.0506 -5.41939,0.009 -8.125,0.15625 -5.36338,0.29268 -10.728835,0.95331 -16.031256,1.9375 -5.286418,0.98124 -10.353684,2.23246 -15.25,3.53125 a 13.465904,13.465904 0 1 0 6.90625,26.03125 c 4.615444,-1.22429 9.024698,-2.30947 13.250001,-3.09375 4.209325,-0.78129 8.445395,-1.30487 12.593755,-1.53125 4.10053,-0.22377 8.20001,-0.15789 12.3125,0.21875 4.13357,0.37855 8.35502,1.0799 12.6875,2 4.36808,0.92769 8.87074,2.07364 13.5,3.34375 4.5943,1.26052 9.37357,2.68956 14.40625,4 5.02851,1.30935 10.13799,2.46761 15.34374,3.375 5.22527,0.9108 10.6154,1.56233 16.09375,1.78125 5.44382,0.21753 10.82821,0.003 16.1875,-0.5625 5.37782,-0.56707 10.64472,-1.48645 15.78125,-2.625 5.1243,-1.13586 10.09616,-2.47389 14.9375,-3.8125 4.85329,-1.3419 9.52029,-2.6712 14,-3.8125 4.51802,-1.15105 8.88168,-2.12803 13.09375,-2.8125 4.21357,-0.6847 8.38987,-1.11581 12.46875,-1.21875 4.03486,-0.10183 8.14703,0.12552 12.34375,0.625 4.20539,0.50047 8.4594,1.27867 12.8125,2.28125 4.38946,1.01093 8.95844,2.24862 13.6875,3.5625 4.70399,1.30695 9.57529,2.71422 14.625,3.96875 5.01957,1.24704 10.17213,2.35577 15.5,3.15625 5.36334,0.80579 10.76424,1.25615 16.15625,1.3125 5.42803,0.0568 10.80945,-0.29294 16.15625,-1 5.32827,-0.70459 10.53493,-1.75575 15.625,-2.96875 5.06054,-1.20596 9.9689,-2.54399 14.75,-3.875 4.78056,-1.33089 9.38661,-2.65037 13.8125,-3.71875 a 13.464426,13.464426 0 1 0 -6.3125,-26.15625 c -5.08581,1.22768 -9.98759,2.62037 -14.71875,3.9375 -4.73064,1.31697 -9.33007,2.56426 -13.78125,3.625 -4.42167,1.05372 -8.69153,1.88429 -12.875,2.4375 -4.1649,0.55076 -8.29129,0.82396 -12.375,0.78125 -4.11973,-0.043 -8.28912,-0.37675 -12.4375,-1 -4.18387,-0.6286 -8.53904,-1.57148 -13.03125,-2.6875 -4.46197,-1.10851 -9.06725,-2.41423 -13.875,-3.75 -4.78266,-1.32878 -9.72149,-2.69531 -14.84375,-3.875 -5.15866,-1.1881 -10.38115,-2.11851 -15.6875,-2.75 -3.98623,-0.47444 -8.03899,-0.78293 -12.125,-0.84375 z"
       id="path5064"
       inkscape:connector-curvature="0" />
  </g>
</svg>
