<?xml version="1.0" encoding="UTF-8" standalone="no"?>
<!-- Created with Inkscape (http://www.inkscape.org/) -->

<svg
   xmlns:dc="http://purl.org/dc/elements/1.1/"
   xmlns:cc="http://creativecommons.org/ns#"
   xmlns:rdf="http://www.w3.org/1999/02/22-rdf-syntax-ns#"
   xmlns:svg="http://www.w3.org/2000/svg"
   xmlns="http://www.w3.org/2000/svg"
   xmlns:sodipodi="http://sodipodi.sourceforge.net/DTD/sodipodi-0.dtd"
   xmlns:inkscape="http://www.inkscape.org/namespaces/inkscape"
   width="512"
   height="512"
   id="svg4319"
   version="1.1"
   inkscape:version="0.48.4 r9939">
  <defs
     id="defs4321" />
  <sodipodi:namedview
     id="base"
     pagecolor="#ffffff"
     bordercolor="#666666"
     borderopacity="1.0"
     inkscape:pageopacity="0.0"
     inkscape:pageshadow="2"
     inkscape:zoom="0.35"
     inkscape:cx="375"
     inkscape:cy="520"
     inkscape:document-units="px"
     inkscape:current-layer="layer1"
     showgrid="false"
     inkscape:window-width="1920"
     inkscape:window-height="1031"
     inkscape:window-x="0"
     inkscape:window-y="25"
     inkscape:window-maximized="1" />
  <metadata
     id="metadata4324">
    <rdf:RDF>
      <cc:Work
         rdf:about="">
        <dc:format>image/svg+xml</dc:format>
        <dc:type
           rdf:resource="http://purl.org/dc/dcmitype/StillImage" />
        <dc:title></dc:title>
      </cc:Work>
    </rdf:RDF>
  </metadata>
  <g
     inkscape:label="Layer 1"
     inkscape:groupmode="layer"
     id="layer1"
     transform="translate(0,-540.36218)">
    <path
       style="font-size:medium;font-style:normal;font-variant:normal;font-weight:normal;font-stretch:normal;text-indent:0;text-align:start;text-decoration:none;line-height:normal;letter-spacing:normal;word-spacing:normal;text-transform:none;direction:ltr;block-progression:tb;writing-mode:lr-tb;text-anchor:start;baseline-shift:baseline;color:#000000;fill:#000000;fill-opacity:1;stroke:none;stroke-width:19.92718506;marker:none;visibility:visible;display:inline;overflow:visible;enable-background:accumulate;font-family:Sans;-inkscape-font-specification:Sans"
       d="m 256,540.36216 c -141.3849,0 -256,114.6151 -256,256 0,141.3849 114.6151,256.00004 256,256.00004 141.3849,0 256,-114.61514 256,-256.00004 0,-141.3849 -114.6151,-256 -256,-256 z m 0,74 c 100.51582,0 182,81.48418 182,182 0,100.51582 -81.48418,182 -182,182 -100.51582,0 -182,-81.48418 -182,-182 0,-100.51582 81.48418,-182 182,-182 z m 5.8125,85.25 c -13.15855,0 -23.8125,10.68519 -23.8125,23.84375 0,13.15856 10.65395,23.8125 23.8125,23.8125 13.15857,0 23.84375,-10.65394 23.84375,-23.8125 0,-13.15856 -10.68518,-23.84375 -23.84375,-23.84375 z m -78.875,1.53125 c -2.2472,0.0359 -4.48608,0.84979 -6.21875,2.28125 l -50.375,41.46875 c -2.1352,1.62255 -3.56424,4.14885 -3.875,6.8125 -0.31077,2.66368 0.51438,5.42955 2.21875,7.5 1.70436,2.07046 4.29502,3.4181 6.96875,3.625 2.67373,0.20694 5.40361,-0.71641 7.40625,-2.5 l 43.34375,-35.71875 22.46875,22.4375 c -0.34578,0.2461 -0.69928,0.4853 -1.03125,0.75 l -66.15625,51.125 c 2.00678,-0.48256 4.06406,-0.92417 6.15625,-1.3125 3.7533,-0.69666 7.54727,-1.19908 11.34375,-1.40625 3.83033,-0.20901 7.67816,-0.10001 11.5,0.25 3.80689,0.34863 7.4901,0.94014 11.15625,1.71875 3.64097,0.77324 7.20016,1.67676 10.65625,2.625 3.48081,0.95502 6.82951,1.92444 10,2.75 3.08556,0.80342 6.09669,1.50504 9.0625,2.03125 l 25.625,-19.8125 c 1.61829,-1.21445 3.05115,-2.66828 4.3125,-4.25 l 61.78125,-0.0937 c 0.0106,10e-6 0.0206,10e-6 0.0312,0 l 73.46875,-0.28125 c 2.69397,0.1205 5.42891,-0.91448 7.375,-2.78125 1.94605,-1.86678 3.07099,-4.52211 3.0625,-7.21875 -0.008,-2.69666 -1.16728,-5.39548 -3.125,-7.25 -1.95776,-1.85451 -4.68184,-2.85626 -7.375,-2.71875 l -73.46875,0.28125 -0.0625,0 -56.96875,0.0625 c -0.18518,-0.8698 -0.374,-1.71887 -0.65625,-2.5625 -0.79308,-2.37066 -1.98542,-4.64433 -3.46875,-6.65625 -0.0139,-0.0187 -0.0486,-0.044 -0.0625,-0.0625 -0.47294,-0.73921 -1.03843,-1.40943 -1.6875,-2 l -0.28125,-0.28125 c -0.25531,-0.26693 -0.48273,-0.52637 -0.75,-0.78125 L 190.1562,704.08096 c -1.88577,-1.87982 -4.5564,-2.9783 -7.21875,-2.9375 z m 92.59375,113.625 c -0.96409,-0.0143 -1.93702,0.008 -2.90625,0.0312 -3.84563,0.097 -7.65595,0.48435 -11.40625,1.09375 -3.75133,0.60963 -7.37147,1.44321 -10.90625,2.34375 -3.56187,0.90748 -6.98374,1.90077 -10.28125,2.8125 -3.30597,0.91408 -6.5194,1.7491 -9.625,2.4375 -3.09705,0.68646 -6.10507,1.2227 -9.03125,1.53125 -2.93931,0.30997 -5.83933,0.39633 -8.71875,0.28125 -2.85501,-0.11405 -5.80957,-0.47114 -8.84375,-1 -3.04799,-0.53129 -6.17033,-1.20492 -9.34375,-2.03125 -3.17047,-0.82554 -6.48792,-1.82624 -9.96875,-2.78125 -3.45609,-0.94822 -6.9841,-1.85174 -10.625,-2.625 -3.66617,-0.77861 -7.41192,-1.37008 -11.21875,-1.71875 -1.91091,-0.175 -3.80464,-0.30798 -5.71875,-0.34375 -1.9141,-0.0359 -3.83483,0.0205 -5.75,0.125 -3.79648,0.20716 -7.62172,0.64711 -11.375,1.34375 -3.742,0.69456 -7.31541,1.58064 -10.78125,2.5 a 9.5355523,9.5355523 0 1 0 4.875,18.4375 c 3.26704,-0.86662 6.41539,-1.63235 9.40625,-2.1875 2.9796,-0.55302 5.96988,-0.9335 8.90625,-1.09375 2.90254,-0.15838 5.80771,-0.0791 8.71875,0.1875 2.92604,0.26799 5.90205,0.75498 8.96875,1.40625 3.09195,0.65668 6.28574,1.44472 9.5625,2.34375 3.2521,0.89226 6.62513,1.91616 10.1875,2.84375 3.55944,0.92683 7.19011,1.73272 10.875,2.375 3.69867,0.6447 7.49714,1.12629 11.375,1.28125 3.85344,0.154 7.6752,0.0251 11.46875,-0.375 3.80671,-0.4014 7.52039,-1.06909 11.15625,-1.875 3.62728,-0.80401 7.16683,-1.73999 10.59375,-2.6875 3.4354,-0.94988 6.73529,-1.9109 9.90625,-2.71875 3.19811,-0.81478 6.29971,-1.51547 9.28125,-2 2.98257,-0.48467 5.92526,-0.77089 8.8125,-0.84375 2.85608,-0.0721 5.77938,0.0839 8.75,0.4375 2.97676,0.35424 5.98116,0.88407 9.0625,1.59375 3.10713,0.71561 6.34008,1.6012 9.6875,2.53125 3.32972,0.92511 6.76928,1.92449 10.34375,2.8125 3.55307,0.88271 7.19746,1.65214 10.96875,2.21875 3.79644,0.57038 7.62077,0.89759 11.4375,0.9375 3.84223,0.0402 7.65277,-0.18701 11.4375,-0.6875 3.77159,-0.49873 7.45952,-1.26642 11.0625,-2.125 3.58211,-0.85364 7.05321,-1.80783 10.4375,-2.75 3.38391,-0.94207 6.6484,-1.83751 9.78125,-2.59375 a 9.5338705,9.5338705 0 1 0 -4.46875,-18.5312 c -3.6,0.869 -7.0573,1.8489 -10.40625,2.78125 -3.34858,0.93221 -6.63048,1.81164 -9.78125,2.5625 -3.1299,0.74586 -6.13249,1.35841 -9.09375,1.75 l -0.0937,0 c -2.91762,0.38188 -5.82597,0.56119 -8.6875,0.53125 -2.91614,-0.0304 -5.84482,-0.27758 -8.78125,-0.71875 -2.96155,-0.44496 -6.03897,-1.08503 -9.21875,-1.875 -3.1584,-0.78465 -6.44059,-1.71071 -9.84375,-2.65625 -3.38545,-0.94058 -6.87424,-1.91494 -10.5,-2.75 -3.65152,-0.84099 -7.33761,-1.52177 -11.09375,-1.96875 -2.82167,-0.33584 -5.70147,-0.5507 -8.59375,-0.59375 z m 0,39.625 c -0.96409,-0.0143 -1.93702,0.008 -2.90625,0.0312 -3.84562,0.097 -7.65596,0.45308 -11.40625,1.0625 -3.75138,0.6096 -7.37147,1.47443 -10.90625,2.375 -3.56188,0.90746 -6.98378,1.86953 -10.28125,2.78125 -3.30595,0.91408 -6.51936,1.78036 -9.625,2.46875 -3.09699,0.68647 -6.10507,1.19144 -9.03125,1.5 -2.93931,0.30995 -5.83929,0.42756 -8.71875,0.3125 -2.85505,-0.11405 -5.80957,-0.47113 -8.84375,-1 -3.04797,-0.53125 -6.17032,-1.2362 -9.34375,-2.0625 -3.17047,-0.82557 -6.48792,-1.79497 -9.96875,-2.75 -3.45607,-0.9482 -6.98404,-1.85174 -10.625,-2.625 -3.66611,-0.77858 -7.41183,-1.40136 -11.21875,-1.75 -1.91092,-0.175 -3.80464,-0.2767 -5.71875,-0.3125 -1.9141,-0.0358 -3.83483,-0.0108 -5.75,0.0937 -3.79647,0.20717 -7.62168,0.67832 -11.375,1.375 -3.74196,0.69456 -7.31539,1.58064 -10.78125,2.5 a 9.5355523,9.5355523 0 1 0 4.875,18.4375 c 3.26704,-0.86661 6.41537,-1.63236 9.40625,-2.1875 2.97957,-0.55304 5.96984,-0.9335 8.90625,-1.09375 2.90255,-0.15839 5.80773,-0.1104 8.71875,0.15625 2.92595,0.26796 5.90202,0.75495 8.96875,1.40625 3.09193,0.65666 6.28571,1.47596 9.5625,2.375 3.2521,0.89227 6.62511,1.91615 10.1875,2.84375 3.55943,0.92685 7.19011,1.73271 10.875,2.375 3.69868,0.64471 7.49715,1.09503 11.375,1.25 3.85339,0.15397 7.67519,0.0242 11.46875,-0.375 3.80669,-0.4014 7.52038,-1.06908 11.15625,-1.875 3.62724,-0.80402 7.16683,-1.73999 10.59375,-2.6875 3.43542,-0.94987 6.73531,-1.87962 9.90625,-2.6875 3.1981,-0.81476 6.29976,-1.51551 9.28125,-2 2.98258,-0.48467 5.92529,-0.80213 8.8125,-0.875 2.85608,-0.0721 5.77937,0.084 8.75,0.4375 2.97678,0.35425 5.98117,0.91531 9.0625,1.625 3.10709,0.71558 6.34004,1.6012 9.6875,2.53125 3.32973,0.92512 6.76932,1.92448 10.34375,2.8125 3.55309,0.8827 7.19744,1.65213 10.96875,2.21875 3.79644,0.57038 7.62078,0.89762 11.4375,0.9375 3.84223,0.0402 7.65277,-0.21825 11.4375,-0.71875 3.7716,-0.49872 7.4595,-1.23514 11.0625,-2.09375 3.58211,-0.85363 7.05321,-1.80784 10.4375,-2.75 3.38391,-0.94204 6.6484,-1.86875 9.78125,-2.625 a 9.5307817,9.5307817 0 1 0 -4.46875,-18.5 c -3.59998,0.869 -7.0573,1.84892 -10.40625,2.78125 -3.34858,0.93221 -6.63049,1.81165 -9.78125,2.5625 -3.12989,0.74587 -6.13249,1.32718 -9.09375,1.71875 -2.94814,0.38987 -5.89058,0.59272 -8.78125,0.5625 -2.91613,-0.0304 -5.84482,-0.27759 -8.78125,-0.71875 -2.96155,-0.44498 -6.03893,-1.11629 -9.21875,-1.90625 -3.15839,-0.78465 -6.44058,-1.71073 -9.84375,-2.65625 -3.38541,-0.94056 -6.87422,-1.8837 -10.5,-2.71875 -3.65155,-0.84099 -7.33765,-1.52175 -11.09375,-1.96875 -2.82165,-0.33585 -5.70146,-0.55069 -8.59375,-0.59375 z"
       id="path5218"
       inkscape:connector-curvature="0" />
  </g>
</svg>
