<?xml version="1.0" encoding="UTF-8" standalone="no"?>
<!-- Created with Inkscape (http://www.inkscape.org/) -->

<svg
   xmlns:dc="http://purl.org/dc/elements/1.1/"
   xmlns:cc="http://creativecommons.org/ns#"
   xmlns:rdf="http://www.w3.org/1999/02/22-rdf-syntax-ns#"
   xmlns:svg="http://www.w3.org/2000/svg"
   xmlns="http://www.w3.org/2000/svg"
   xmlns:sodipodi="http://sodipodi.sourceforge.net/DTD/sodipodi-0.dtd"
   xmlns:inkscape="http://www.inkscape.org/namespaces/inkscape"
   width="512"
   height="512"
   id="svg4319"
   version="1.1"
   inkscape:version="0.48.4 r9939"
   sodipodi:docname="timer.svg">
  <defs
     id="defs4321" />
  <sodipodi:namedview
     id="base"
     pagecolor="#ffffff"
     bordercolor="#666666"
     borderopacity="1.0"
     inkscape:pageopacity="0.0"
     inkscape:pageshadow="2"
     inkscape:zoom="0.7"
     inkscape:cx="-162.09453"
     inkscape:cy="333.96547"
     inkscape:document-units="px"
     inkscape:current-layer="layer1"
     showgrid="false"
     inkscape:window-width="1920"
     inkscape:window-height="1031"
     inkscape:window-x="0"
     inkscape:window-y="25"
     inkscape:window-maximized="1"
     showguides="true"
     inkscape:guide-bbox="true">
    <sodipodi:guide
       orientation="0,1"
       position="-204.28571,222.85714"
       id="guide2983" />
    <sodipodi:guide
       orientation="1,0"
       position="254.28571,520"
       id="guide2985" />
  </sodipodi:namedview>
  <metadata
     id="metadata4324">
    <rdf:RDF>
      <cc:Work
         rdf:about="">
        <dc:format>image/svg+xml</dc:format>
        <dc:type
           rdf:resource="http://purl.org/dc/dcmitype/StillImage" />
        <dc:title />
      </cc:Work>
    </rdf:RDF>
  </metadata>
  <g
     inkscape:label="Layer 1"
     inkscape:groupmode="layer"
     id="layer1">
    <path
       d="m 256,-66.668336 c -41.12358,0 -74.61341,33.446331 -74.61341,74.509768 0,33.61026 22.41374,62.103808 53.11025,71.349058 l -2.6e-4,17.46161 c -27.98906,2.85019 -54.14204,11.30474 -77.77384,24.14573 L 136.67037,89.19076 c -3.75331,-6.09269 -10.72142,-10.07157 -17.87612,-10.20753 -7.77624,-0.1623 -15.4776,4.27187 -19.241402,11.07849 -3.76379,6.80663 -3.42472,15.68683 0.847132,22.18664 l 20.88139,32.79882 C 76.169038,183.27737 47.497011,240.2856 47.497011,303.8079 47.497011,418.54126 141.09852,512 256,512 c 114.90149,0 208.50299,-93.45874 208.50299,-208.1921 0,-63.86467 -29.0285,-121.15008 -74.5616,-159.3825 l 21.29593,-31.7107 c 4.50036,-6.47035 5.01694,-15.48967 1.28476,-22.43152 -3.73219,-6.94187 -11.54062,-11.48538 -19.41997,-11.29995 -6.94811,0.15404 -13.71777,3.9194 -17.51343,9.74119 L 354.3446,120.33148 C 330.94779,107.76901 305.07964,99.46556 277.45142,96.6521 l 0,-17.46161 c 30.69648,-9.24525 53.16197,-37.738798 53.16197,-71.349058 0,-41.063437 -33.48981,-74.509768 -74.61339,-74.509768 z m 0,15.337197 c 32.8106,0 59.22437,26.409961 59.22437,59.172571 0,25.20253 -15.61999,46.630048 -37.77302,55.182824 l 0,-15.596279 c 6.25781,-0.103634 12.95152,-2.667347 16.68934,-6.29054 3.97586,-3.975873 6.29055,-9.563985 6.29055,-15.186716 0,-5.622733 -2.31469,-11.210838 -6.29055,-15.186716 -3.97587,-3.97587 -9.56396,-6.290539 -15.18671,-6.290539 l -45.95977,0 c -5.62275,0 -11.21086,2.314669 -15.18672,6.290539 -3.97586,3.975878 -6.29053,9.563983 -6.29053,15.186716 0,5.622731 2.31467,11.210843 6.29053,15.186716 5.3628,4.279675 10.75358,6.29054 16.68935,6.29054 l -2.6e-4,15.596279 c -22.13297,-8.564325 -37.7728,-29.99722 -37.7728,-55.182824 0,-32.76261 26.46559,-59.172571 59.27622,-59.172571 z m -8.29037,190.056899 c 0.18879,-0.009 0.38096,0.009 0.56997,0 l 0,25.13022 c 0.005,4.02572 3.66878,7.68518 7.6945,7.68518 4.02571,0 7.6896,-3.65946 7.6945,-7.68518 l 0,-25.13022 c 85.54324,3.86934 153.80957,71.99168 157.6726,157.41354 -8.53029,-6e-5 -17.23283,0 -25.70018,0 -3.89248,0.37175 -7.14339,4.13507 -6.94548,8.04026 0.19788,3.90519 3.81259,7.32059 7.72271,7.29694 l 24.92295,0 c -3.88858,85.40786 -72.1345,153.60651 -157.6726,157.46534 l 0,-24.35298 c 0.0465,-4.09944 -3.725,-7.84609 -7.82405,-7.77222 -4.01276,0.063 -7.61044,3.75923 -7.56495,7.77222 l 0,24.35298 C 162.7638,465.05785 94.496659,396.86713 90.606979,311.4765 l 24.974751,0 c 2.09384,0.14145 4.23343,-0.6205 5.76657,-2.05356 1.53313,-1.43307 2.43754,-3.51643 2.43754,-5.61504 0,-2.09862 -0.90441,-4.18198 -2.43754,-5.61503 -1.53314,-1.43307 -3.67273,-2.19501 -5.76657,-2.05357 l -24.974751,0 C 94.462559,210.92333 162.45305,142.89463 247.70963,138.72576 z m 105.0805,62.79967 c -0.99516,0.10442 -1.96931,0.40545 -2.8498,0.88084 l -119.12237,64.61312 c -11.76124,8.02359 -19.48239,21.49222 -19.48239,36.78856 0,24.62201 20.00635,44.56078 44.66443,44.56078 17.64014,0 32.8627,-10.20335 40.1047,-25.02659 0.034,-0.0697 0.0699,-0.13743 0.10364,-0.20725 l 64.04314,-110.10656 c 1.41745,-2.44056 1.32862,-5.6635 -0.20726,-8.03131 -2.90527,-3.13405 -4.6045,-3.8207 -7.25409,-3.47159 z M 256,287.07169 c 9.24678,0 16.7362,7.50295 16.7362,16.73621 0,9.23325 -7.48942,16.73619 -16.7362,16.73619 -9.24679,0 -16.73622,-7.50294 -16.73622,-16.73619 0,-9.23326 7.48943,-16.73621 16.73622,-16.73621 z"
       id="path9110-9-0"
       inkscape:connector-curvature="0"
       style="fill:#000000;fill-opacity:1" />
  </g>
</svg>
