<?xml version="1.0" encoding="UTF-8" standalone="no"?>
<!-- Created with Inkscape (http://www.inkscape.org/) -->

<svg
   xmlns:dc="http://purl.org/dc/elements/1.1/"
   xmlns:cc="http://creativecommons.org/ns#"
   xmlns:rdf="http://www.w3.org/1999/02/22-rdf-syntax-ns#"
   xmlns:svg="http://www.w3.org/2000/svg"
   xmlns="http://www.w3.org/2000/svg"
   xmlns:sodipodi="http://sodipodi.sourceforge.net/DTD/sodipodi-0.dtd"
   xmlns:inkscape="http://www.inkscape.org/namespaces/inkscape"
   width="512"
   height="512"
   id="svg4319"
   version="1.1"
   inkscape:version="0.48.4 r9939"
   sodipodi:docname="timer-legend.svg">
  <defs
     id="defs4321" />
  <sodipodi:namedview
     id="base"
     pagecolor="#ffffff"
     bordercolor="#666666"
     borderopacity="1.0"
     inkscape:pageopacity="0.0"
     inkscape:pageshadow="2"
     inkscape:zoom="0.98994949"
     inkscape:cx="498.98253"
     inkscape:cy="12.212745"
     inkscape:document-units="px"
     inkscape:current-layer="layer1"
     showgrid="false"
     inkscape:window-width="1366"
     inkscape:window-height="719"
     inkscape:window-x="0"
     inkscape:window-y="25"
     inkscape:window-maximized="1" />
  <metadata
     id="metadata4324">
    <rdf:RDF>
      <cc:Work
         rdf:about="">
        <dc:format>image/svg+xml</dc:format>
        <dc:type
           rdf:resource="http://purl.org/dc/dcmitype/StillImage" />
        <dc:title />
      </cc:Work>
    </rdf:RDF>
  </metadata>
  <g
     inkscape:label="Layer 1"
     inkscape:groupmode="layer"
     id="layer1">
    <path
       d="M 256.00005,5.6925383e-7 C 229.13716,5.6925383e-7 207.25493,21.877541 207.25493,48.701133 c 0,21.95302 14.66229,40.55468 34.7111,46.58943 0.059,3.75004 -0.10037,7.824397 0.0439,11.438387 -18.25106,1.86994 -35.44359,7.37645 -50.85681,15.74978 l -13.11015,-20.63309 c -2.44379,-3.981777 -6.9875,-6.587977 -11.65836,-6.687057 -5.07979,-0.10488 -10.11001,2.79288 -12.56754,7.239877 -2.45756,4.447 -2.23452,10.2479 0.55723,14.49306 l 13.63808,21.42498 c -29.47683,24.96926 -48.2172,62.19394 -48.2172,103.69338 0,54.7356 32.62428,102.07023 79.4528,123.62256 l 53.49645,143.15581 c 0.72515,1.901 2.71682,3.23057 4.75133,3.21155 2.03453,-0.019 3.97386,-1.38532 4.66334,-3.29953 l 50.72491,-143.15581 c 46.75312,-21.58236 79.32081,-68.85384 79.32081,-123.53458 0,-41.73288 -18.93736,-79.16263 -48.70113,-104.13332 l 13.90204,-20.67708 c 2.94219,-4.22499 3.28294,-10.11654 0.84746,-14.65254 -2.43551,-4.536007 -7.53464,-7.506747 -12.68178,-7.388357 -4.54092,0.10474 -8.96295,2.5708 -11.4384,6.379097 l -13.85804,20.63309 c -15.27832,-8.2057 -32.28752,-13.59919 -50.3289,-15.44182 0.11881,-3.73039 0.0439,-7.603297 0.0439,-11.438387 20.06936,-6.02198 34.75509,-24.62177 34.75509,-46.58943 C 304.74507,21.877541 282.86282,5.692538e-7 255.99994,5.692538e-7 z m 0,10.03059043074617 c 21.43265,0 38.67055,17.26924 38.67055,38.670542 0,16.46897 -10.20846,30.4544 -24.68052,36.03092 l 0,-10.16256 c 4.09919,-0.0611 8.48621,-1.7364 10.93541,-4.11047 2.59798,-2.59799 4.11047,-6.24946 4.11047,-9.92355 0,-3.6741 -1.51249,-7.32557 -4.11047,-9.92355 -2.59799,-2.59799 -6.24946,-4.11048 -9.92355,-4.11048 l -30.04777,0 c -3.67409,0 -7.32556,1.51249 -9.92355,4.11048 -2.59798,2.59798 -4.11047,6.24945 -4.11047,9.92355 0,3.67409 1.51249,7.32556 4.11047,9.92355 3.51821,2.80954 7.03686,4.11047 10.93541,4.11047 l 0,10.16256 c -14.46395,-5.58635 -24.68052,-19.57636 -24.68052,-36.03092 0,-21.401302 17.28189,-38.670542 38.71454,-38.670542 z m -5.01564,124.150489 0,16.40969 c -0.12586,2.70375 2.30897,5.25415 5.01564,5.25415 2.7067,0 5.14114,-2.5504 5.01529,-5.25415 l 0,-16.40969 c 55.88222,2.52156 100.42161,47.01173 102.94549,102.8135 -5.55015,-4e-5 -11.2066,0 -16.71765,0 -2.62607,0.12657 -4.9002,2.63121 -4.7735,5.25727 0.1267,2.62607 2.63138,4.90011 5.25744,4.77332 l 16.23371,0 c -2.5239,55.80405 -47.06327,100.33369 -102.94549,102.85749 l 0,-15.88176 c 0.0445,-2.68397 -2.4193,-5.14779 -5.10328,-5.10328 -2.62529,0.0484 -4.97091,2.4779 -4.9273,5.10328 l 0,15.88176 C 195.10031,347.35886 150.52144,302.82922 147.99528,247.02517 l 16.27771,0 c 2.70375,0.12586 5.25415,-2.30861 5.25415,-5.01529 0,-2.70668 -2.5504,-5.14114 -5.25415,-5.0153 l -16.27771,0 c 2.51755,-55.61136 47.37242,-100.01524 102.98913,-102.8135 z m 68.76265,41.00222 c -0.82642,0.006 -1.65063,0.21928 -2.37566,0.61591 l -78.001,42.32204 c -7.57034,5.26125 -12.53823,13.98172 -12.53823,23.88863 0,16.08365 13.06066,29.12389 29.16788,29.12389 11.49311,0 21.42342,-6.63094 26.17631,-16.2777 l 41.92609,-72.10584 c 0.89474,-1.52048 0.92419,-3.53026 0.0439,-5.05928 -1.25296,-1.41741 -2.82412,-2.48298 -4.39931,-2.50765 z m -63.74701,55.91612 c 6.04022,0 10.91046,4.87908 10.91046,10.91046 0,6.03137 -4.87024,10.95445 -10.91046,10.95445 -6.04021,0 -10.95445,-4.92308 -10.95445,-10.95445 0,-6.03138 4.91424,-10.91046 10.95445,-10.91046 z"
       id="path9110-9"
       inkscape:connector-curvature="0"
       style="fill:#000000;fill-opacity:1" />
  </g>
</svg>
