<?xml version="1.0" encoding="UTF-8" standalone="no"?>
<!-- Created with Inkscape (http://www.inkscape.org/) -->

<svg
   xmlns:dc="http://purl.org/dc/elements/1.1/"
   xmlns:cc="http://creativecommons.org/ns#"
   xmlns:rdf="http://www.w3.org/1999/02/22-rdf-syntax-ns#"
   xmlns:svg="http://www.w3.org/2000/svg"
   xmlns="http://www.w3.org/2000/svg"
   xmlns:sodipodi="http://sodipodi.sourceforge.net/DTD/sodipodi-0.dtd"
   xmlns:inkscape="http://www.inkscape.org/namespaces/inkscape"
   width="512"
   height="512"
   id="svg4319"
   version="1.1"
   inkscape:version="0.91 r13725"
   sodipodi:docname="top-shape.svg">
  <defs
     id="defs4321" />
  <sodipodi:namedview
     id="base"
     pagecolor="#ffffff"
     bordercolor="#666666"
     borderopacity="1.0"
     inkscape:pageopacity="0.0"
     inkscape:pageshadow="2"
     inkscape:zoom="0.7"
     inkscape:cx="193.87871"
     inkscape:cy="239.73576"
     inkscape:document-units="px"
     inkscape:current-layer="layer1"
     showgrid="false"
     inkscape:window-width="1366"
     inkscape:window-height="725"
     inkscape:window-x="0"
     inkscape:window-y="25"
     inkscape:window-maximized="1" />
  <metadata
     id="metadata4324">
    <rdf:RDF>
      <cc:Work
         rdf:about="">
        <dc:format>image/svg+xml</dc:format>
        <dc:type
           rdf:resource="http://purl.org/dc/dcmitype/StillImage" />
        <dc:title />
      </cc:Work>
    </rdf:RDF>
  </metadata>
  <g
     inkscape:label="Layer 1"
     inkscape:groupmode="layer"
     id="layer1"
     transform="translate(0,-540.36218)">
    <g
       style="font-style:normal;font-variant:normal;font-weight:500;font-stretch:normal;font-size:369.3097229px;line-height:125%;font-family:markallen;-inkscape-font-specification:'markallen, Medium';text-align:start;letter-spacing:0px;word-spacing:0px;writing-mode:lr-tb;text-anchor:start;fill:#000000;fill-opacity:1;stroke:none;stroke-width:1px;stroke-linecap:butt;stroke-linejoin:miter;stroke-opacity:1"
       id="text3336"
       transform="matrix(1.3863702,0,0,1.3863702,49.207792,-297.91259)">
      <path
         d="m 18.604127,658.75245 c 36.065403,-36.0654 79.58432,-54.0981 130.556753,-54.0981 50.97244,0 94.49136,18.0327 130.55676,54.0981 36.06541,36.0654 54.09811,79.58432 54.09811,130.55676 0,50.97243 -18.0327,94.49135 -54.09811,130.55676 -36.0654,36.0654 -79.58432,54.0981 -130.55676,54.0981 -50.972433,0 -94.49135,-18.0327 -130.556753,-54.0981 -36.065403,-36.06541 -54.098104,-79.58433 -54.098104,-130.55676 0,-50.97244 18.032701,-94.49136 54.098104,-130.55676 z m 72.130806,49.77026 c -28.656593,2.23497 -49.408567,21.95691 -49.770256,48.32764 -0.152272,8.74389 7.483754,15.03751 15.147469,15.14746 8.278857,-0.59809 15.147469,-7.50559 15.147469,-15.14746 0.514282,-11.89052 9.288731,-17.91858 19.475318,-18.03271 11.033837,0.44749 19.334727,7.97354 19.475317,18.03271 0.5271,8.09761 8.95635,14.87975 15.14747,15.14746 8.11947,0.10383 15.14747,-7.92599 15.14747,-15.14746 -2.27204,-28.32191 -24.39077,-47.97979 -49.770257,-48.32764 z m 116.851907,0 c -28.6566,2.23497 -49.40857,21.95691 -49.77026,48.32764 0.52711,8.09761 8.95635,14.87975 15.14747,15.14746 8.14827,-0.50167 15.01481,-7.71376 15.14747,-15.14746 0.51428,-11.89052 9.28873,-17.91858 19.47532,-18.03271 11.03383,0.44749 19.33472,7.97354 19.47531,18.03271 -0.15227,8.74389 7.48376,15.03751 15.14747,15.14746 8.27886,-0.59808 15.14747,-7.50559 15.14747,-15.14746 -2.27204,-28.3219 -24.39077,-47.97979 -49.77025,-48.32764 z M 51.06299,808.78453 c -2.885233,0 -5.289593,1.20218 -7.213081,3.60654 -1.923488,2.40436 -2.644796,5.04915 -2.163924,7.93438 3.366104,26.44797 15.147469,48.80852 35.344095,67.08165 20.6775,17.79227 44.7211,26.6884 72.1308,26.6884 27.40971,0 51.21287,-8.89613 71.4095,-26.6884 20.6775,-18.27313 32.6993,-40.63368 36.0654,-67.08165 0.48087,-2.88523 -0.24043,-5.53002 -2.16392,-7.93438 -1.92349,-2.40436 -4.32785,-3.60654 -7.21308,-3.60654 -65.3986,0 -130.79719,0 -196.19579,0 z"
         id="path3355"
         inkscape:connector-curvature="0"
         sodipodi:nodetypes="ssssssssscccccccccccccccccccsccsccscc" />
    </g>
  </g>
</svg>
